<svg xmlns="http://www.w3.org/2000/svg" viewBox="0 0 96.183 96.184">
  <defs>
    <style>
      .cls-1 {
        fill: #fff;
      }

      .cls-2 {
        fill: #fe6663;
      }

      .cls-3 {
        fill: #ffcdac;
      }

      .cls-4 {
        fill: #a5ddff;
      }

      .cls-5 {
        fill: #ffbc53;
      }

      .cls-6 {
        fill: #9ad8ff;
      }
    </style>
  </defs>
  <g id="resume" transform="translate(-0.001)">
    <path id="Shape" class="cls-1" d="M72.138,92.426H3.757A3.757,3.757,0,0,1,0,88.669V3.757A3.757,3.757,0,0,1,3.757,0H72.138a3.757,3.757,0,0,1,3.757,3.757V88.669A3.757,3.757,0,0,1,72.138,92.426Z" transform="translate(1.88 1.879)"/>
    <circle id="Oval" class="cls-2" cx="15.404" cy="15.404" r="15.404" transform="translate(24.423 12.023)"/>
    <path id="Shape-2" data-name="Shape" class="cls-3" d="M9.769,4.884V6.105A4.884,4.884,0,0,1,4.884,10.99h0A4.884,4.884,0,0,1,0,6.105V4.884A4.884,4.884,0,0,1,4.884,0h0A4.884,4.884,0,0,1,9.769,4.884Z" transform="translate(34.943 20.571)"/>
    <path id="Shape-3" data-name="Shape" class="cls-4" d="M10.489,0h0A11.273,11.273,0,0,0,0,7.145a15.346,15.346,0,0,0,10.489,4.127A15.346,15.346,0,0,0,20.977,7.145,11.273,11.273,0,0,0,10.489,0Z" transform="translate(29.339 31.56)"/>
    <path id="Shape-4" data-name="Shape" class="cls-5" d="M22.567,4.866,23.64,3.007a6.012,6.012,0,0,1,8.212-2.2h0a6.012,6.012,0,0,1,2.2,8.212L10.412,49.964,0,43.953,10.2,26.29Z" transform="translate(59.447 25.302)"/>
    <path id="Shape-5" data-name="Shape" class="cls-2" d="M11,.806h0a6.011,6.011,0,0,0-8.212,2.2L0,7.841l10.412,6.011L13.2,9.018A6.012,6.012,0,0,0,11,.806Z" transform="translate(80.297 25.302)"/>
    <path id="Shape-6" data-name="Shape" class="cls-6" d="M12.076,6.011,0,14.905,1.664,0Z" transform="translate(57.783 69.255)"/>
    <path id="Shape-7" data-name="Shape" d="M77.773,74.829a1.879,1.879,0,0,0-1.879,1.879v13.84a1.881,1.881,0,0,1-1.879,1.879H5.636a1.881,1.881,0,0,1-1.879-1.879V5.636A1.881,1.881,0,0,1,5.636,3.757H74.016a1.881,1.881,0,0,1,1.879,1.879v20.43a1.879,1.879,0,1,0,3.757,0V5.636A5.642,5.642,0,0,0,74.016,0H5.636A5.642,5.642,0,0,0,0,5.636V90.548a5.642,5.642,0,0,0,5.636,5.636H74.016a5.642,5.642,0,0,0,5.636-5.636V76.708A1.879,1.879,0,0,0,77.773,74.829Z" transform="translate(0.001)"/>
    <path id="Shape-8" data-name="Shape" d="M17.283,34.565A17.225,17.225,0,0,1,5.628,30.033a1.868,1.868,0,0,1-.2-.188,17.279,17.279,0,1,1,29.14-12.562A17.23,17.23,0,0,1,29.14,29.845a1.909,1.909,0,0,1-.2.188A17.236,17.236,0,0,1,17.283,34.565Zm0-11.271a9.333,9.333,0,0,0-8.17,4.758,13.489,13.489,0,0,0,16.34,0,9.332,9.332,0,0,0-8.17-4.758Zm0-14.747a6.771,6.771,0,0,1,6.764,6.764v1.22a6.691,6.691,0,0,1-1.414,4.131A13.032,13.032,0,0,1,28.167,25.3a13.523,13.523,0,1,0-24.41-8.019A13.417,13.417,0,0,0,6.4,25.3a13.034,13.034,0,0,1,5.535-4.639,6.7,6.7,0,0,1-1.413-4.131v-1.22A6.771,6.771,0,0,1,17.283,8.547Zm0,3.758a3.009,3.009,0,0,0-3.005,3.006v1.22a3.006,3.006,0,1,0,6.011,0v-1.22A3.009,3.009,0,0,0,17.283,12.3Z" transform="translate(22.544 10.144)"/>
    <path id="Shape-9" data-name="Shape" d="M12.023,0H1.879a1.879,1.879,0,0,0,0,3.757H12.023a1.879,1.879,0,1,0,0-3.757Z" transform="translate(37.949 82.282)"/>
    <path id="Shape-10" data-name="Shape" d="M28.555,0H1.879a1.879,1.879,0,0,0,0,3.757H28.555a1.879,1.879,0,0,0,0-3.757Z" transform="translate(21.417 71.762)"/>
    <path id="Shape-11" data-name="Shape" d="M28.555,0H1.879a1.879,1.879,0,0,0,0,3.757H28.555a1.879,1.879,0,0,0,0-3.757Z" transform="translate(21.417 61.242)"/>
    <path id="Shape-12" data-name="Shape" d="M3.208.55A1.88,1.88,0,0,0,.55.55a1.878,1.878,0,0,0,0,2.656,1.88,1.88,0,0,0,2.658,0,1.877,1.877,0,0,0,0-2.656Z" transform="translate(13.392 50.722)"/>
    <path id="Shape-13" data-name="Shape" d="M3.208.55A1.88,1.88,0,0,0,.55.55a1.878,1.878,0,0,0,0,2.656,1.88,1.88,0,0,0,2.658,0,1.877,1.877,0,0,0,0-2.656Z" transform="translate(13.392 61.242)"/>
    <path id="Shape-14" data-name="Shape" d="M1.879,0A1.879,1.879,0,0,0,0,1.879,1.879,1.879,0,0,0,3.208,3.207a1.877,1.877,0,0,0,0-2.656A1.9,1.9,0,0,0,1.879,0Z" transform="translate(13.392 71.762)"/>
    <path id="Shape-15" data-name="Shape" d="M28.555,0H1.879a1.879,1.879,0,0,0,0,3.757H28.555a1.879,1.879,0,0,0,0-3.757Z" transform="translate(21.417 50.722)"/>
    <path id="Shape-16" data-name="Shape" d="M1.878,62.618A1.879,1.879,0,0,1,.012,60.531L1.676,45.625a1.866,1.866,0,0,1,.24-.731L25.556,3.948A7.835,7.835,0,0,1,30.347.272,7.949,7.949,0,0,1,32.4,0a7.9,7.9,0,0,1,6.82,11.839L15.582,52.785a1.885,1.885,0,0,1-.513.573L2.993,62.252A1.866,1.866,0,0,1,1.878,62.618ZM5.091,48.9,4.222,56.68l6.306-4.644ZM25.079,12.288,6.109,45.147l7.158,4.133L32.238,16.42ZM32.4,3.759a4.158,4.158,0,0,0-1.077.143A4.1,4.1,0,0,0,28.81,5.827L26.959,9.034l7.158,4.133L35.969,9.96a4.137,4.137,0,0,0-3.572-6.2Z" transform="translate(55.905 23.421)"/>
  </g>
</svg>
