<svg id="halloween-black-cat" xmlns="http://www.w3.org/2000/svg" viewBox="0 0 67 101">
  <path id="Shape" d="M66.992,96.273c-.487-4.069-4.97-4.531-7.576-4.251-2.775-10.481,6.9-26.1,7.473-29.8.612-3.975-2.833-27.1-3.2-38.816C63.319,11.381,45.912-1.892,43.006.224c-2.88,3.194,4.148,7.506.448,11.2C39.881,15,38.949,17.4,36.3,21.44,29.5,31.793,47.919,31.923,47.919,31.923S33.5,42.641,30.295,48.044C27.34,53.019,26.1,58.585,22.537,63.277c-8.125,10.693-6.294,29.336-6.294,29.336S.853,87.56,9.323,69.934c6.448-13.417,9.624-33.216-4.882-28.124-5.612,1.97,1.255,6.115,2.44,7.442,3.965,4.439.613,11.907-1.776,16.225-6.4,11.564-8.721,23.679,4.746,31.15,5.984,3.319,14.065,4.14,22.2,4.261l20.7.06C59.564,101.288,67.276,100.009,66.992,96.273Z" transform="translate(0)"/>
</svg>
