<svg xmlns="http://www.w3.org/2000/svg" viewBox="0 0 129 92">
  <defs>
    <style>
      .cls-1 {
        fill: #fcd888;
      }

      .cls-2 {
        fill: #5396a8;
      }

      .cls-3 {
        fill: #ff4f4f;
      }

      .cls-4 {
        fill: #ffd4b8;
      }
    </style>
  </defs>
  <g id="Group_1" data-name="Group 1" transform="translate(-917.3 -1272.9)">
    <path id="Shape" class="cls-1" d="M33.7,58H58V21.17L29,0,0,21.17v4.041" transform="translate(973.3 1287.9)"/>
    <path id="Shape-2" data-name="Shape" class="cls-2" d="M19,28V0H0V11.857" transform="translate(993.3 1316.9)"/>
    <path id="Shape-3" data-name="Shape" class="cls-3" d="M9,8.17V0H0V15" transform="translate(974.3 1279.9)"/>
    <path id="Shape-4" data-name="Shape" class="cls-4" d="M0,0V24.226H7.38c.934,0,2.116,3.817,3.268,10.392,1.436,8.2,6.259,20.365,22.71,20.365L98.847,55A8.078,8.078,0,0,0,107,46.765a8.2,8.2,0,0,0-8.32-7.785h-27.6" transform="translate(937.3 1306.9)"/>
    <path id="Shape-5" data-name="Shape" class="cls-4" d="M28.866,24.4,57.714,47.249A8.309,8.309,0,0,0,69.207,46a7.861,7.861,0,0,0-1.275-11.225L33.453,5.418C25.816-1.4,6.9-.135,0,.592V2.824" transform="translate(937.3 1303.9)"/>
    <path id="Shape-6" data-name="Shape" class="cls-3" d="M2.364,36.152,33.5,12.785,67,38V25.215L33.5,0,0,25.215v8.814" transform="translate(969.3 1274.9)"/>
    <path id="Shape-7" data-name="Shape" d="M2.5,5a2.5,2.5,0,0,1-.487-.05,2.588,2.588,0,0,1-.468-.143,2.708,2.708,0,0,1-.433-.23A2.415,2.415,0,0,1,.42,3.888a2.706,2.706,0,0,1-.23-.432,2.587,2.587,0,0,1-.143-.468A2.52,2.52,0,0,1,.729.731a2.7,2.7,0,0,1,.38-.309,2.708,2.708,0,0,1,.433-.23A2.588,2.588,0,0,1,2.01.048a2.5,2.5,0,0,1,.978,0,2.588,2.588,0,0,1,.468.143,2.708,2.708,0,0,1,.433.23,2.7,2.7,0,0,1,.38.309A2.486,2.486,0,0,1,4.95,2.988a2.587,2.587,0,0,1-.143.468,2.706,2.706,0,0,1-.23.432,2.954,2.954,0,0,1-.31.38,2.566,2.566,0,0,1-.38.309,2.708,2.708,0,0,1-.433.23,2.588,2.588,0,0,1-.468.143A2.508,2.508,0,0,1,2.5,5Z" transform="translate(956.3 1320.9)"/>
    <path id="Shape-8" data-name="Shape" class="cls-2" d="M0,0H17V40H0Z" transform="translate(920.3 1299.9)"/>
    <path id="Shape-9" data-name="Shape" d="M118.32,92l-65.538-.016c-13.723,0-22.675-8.068-25.209-22.719a47.9,47.9,0,0,0-1.985-8.449H21.92v6.052A2.516,2.516,0,0,1,19.4,69.374H2.519A2.516,2.516,0,0,1,0,66.867V26.891a2.516,2.516,0,0,1,2.519-2.506H19.4a2.516,2.516,0,0,1,2.519,2.506v2.373c2.858-.232,5.673-.349,8.365-.349,8.06,0,14.534,1.033,19.241,3.069V27.178a2.512,2.512,0,0,1,1.028-2.02l4.036-2.95V7.673a2.515,2.515,0,0,1,2.519-2.506h9.536a2.516,2.516,0,0,1,2.52,2.506v3.886L84.317.487a2.529,2.529,0,0,1,2.983,0l33.762,24.672a2.508,2.508,0,0,1,1.027,2.02v12.51a2.494,2.494,0,0,1-1.381,2.236,2.575,2.575,0,0,1-1.138.27,2.511,2.511,0,0,1-1.492-.487l-.66-.482V70.754h.732A10.814,10.814,0,0,1,129,81.081a10.519,10.519,0,0,1-3.02,7.7A10.625,10.625,0,0,1,118.32,92ZM30.478,33.925c-2.75,0-5.629.125-8.558.37V55.8h4.866c2.56,0,3.471,2.95,3.961,4.535a68.413,68.413,0,0,1,1.792,8.077C34,76.88,38.7,86.971,52.782,86.971l65.539.017a5.624,5.624,0,0,0,5.637-5.77,5.753,5.753,0,0,0-5.808-5.452H92.432a10.474,10.474,0,0,1-2,3.973,10.619,10.619,0,0,1-7.16,3.921,10.991,10.991,0,0,1-1.2.067A10.575,10.575,0,0,1,75.422,81.4l-28.8-23.236a2.5,2.5,0,0,1-.369-3.525,2.528,2.528,0,0,1,3.544-.368L78.583,77.492a5.57,5.57,0,0,0,3.5,1.221,5.807,5.807,0,0,0,.632-.035A5.616,5.616,0,0,0,86.5,76.607a5.6,5.6,0,0,0-.879-7.887c-.028-.022-.054-.044-.081-.067L51.129,38.813l-.041-.037c-1.958-1.78-5.029-3.091-9.127-3.9A60.628,60.628,0,0,0,30.478,33.925Zm45.812,9.16H95.325a2.516,2.516,0,0,1,2.52,2.507V70.754H112.38V37.543L85.806,18.125,58.164,38.264,73.771,51.8V45.592A2.516,2.516,0,0,1,76.29,43.086ZM78.81,48.1v8.069l10,8.674A10.482,10.482,0,0,1,92.5,70.754h.3V48.1ZM5.039,29.4V64.361H16.88V29.4ZM85.808,12.51A2.511,2.511,0,0,1,87.3,13l29.75,21.74v-6.29L85.808,5.617,54.565,28.447v6.226L84.318,13A2.512,2.512,0,0,1,85.808,12.51ZM59.63,10.179v8.347l4.5-3.286V10.179h-4.5Z" transform="translate(917.3 1272.9)"/>
  </g>
</svg>
