<svg xmlns="http://www.w3.org/2000/svg" xmlns:xlink="http://www.w3.org/1999/xlink" viewBox="0 0 204.819 171.719">
  <defs>
    <style>
      .cls-1 {
        fill: none;
      }

      .cls-2 {
        clip-path: url(#clip-path);
      }

      .cls-3 {
        fill: #56cfe2;
      }

      .cls-4 {
        clip-path: url(#clip-path-2);
      }

      .cls-5 {
        fill: #30b9d8;
      }

      .cls-6 {
        fill: #af5aaf;
      }

      .cls-7 {
        clip-path: url(#clip-path-3);
      }

      .cls-8 {
        fill: #974499;
      }

      .cls-9 {
        fill: #8dc63f;
      }

      .cls-10 {
        clip-path: url(#clip-path-4);
      }

      .cls-11 {
        fill: #7eaf31;
      }

      .cls-12 {
        fill: #f7ca15;
      }

      .cls-13 {
        clip-path: url(#clip-path-5);
      }

      .cls-14 {
        fill: #fbb040;
      }

      .cls-15 {
        fill: #fff;
      }

      .cls-16 {
        clip-path: url(#clip-path-6);
      }

      .cls-17 {
        fill: #e6e7e8;
      }

      .cls-18 {
        clip-path: url(#clip-path-7);
      }

      .cls-19 {
        fill: #fd0f47;
      }

      .cls-20 {
        clip-path: url(#clip-path-8);
      }

      .cls-21 {
        fill: #e2003b;
      }
    </style>
    <clipPath id="clip-path">
      <path id="Clip_4" data-name="Clip 4" class="cls-1" d="M0,0H204.819V148.715H0Z" transform="translate(0.134 0.28)"/>
    </clipPath>
    <clipPath id="clip-path-2">
      <path id="Clip_12" data-name="Clip 12" class="cls-1" d="M14.672,2.242A18.25,18.25,0,0,0,6.477,8.691h0A16.912,16.912,0,0,0,3.59,18.5h0q0,5.768,2.809,9.212h0A17.236,17.236,0,0,0,13.072,32.8h0a71.8,71.8,0,0,0,9.639,3.165h0A39.031,39.031,0,0,1,29.7,38.251h0a3.32,3.32,0,0,1,2.224,3h0a2.617,2.617,0,0,1-1.17,2.363h0a5.819,5.819,0,0,1-3.2.761h0q-4.214,0-10.458-2.6h0a36.624,36.624,0,0,1-10.38-6.288h0L0,49.506a41.414,41.414,0,0,0,12.76,6.689h0a46.321,46.321,0,0,0,14.633,2.444h0a32.3,32.3,0,0,0,11.629-2h0a18.236,18.236,0,0,0,8.312-6.128h0a16.587,16.587,0,0,0,3.082-10.214h0a14.969,14.969,0,0,0-2.888-9.573h0a17.5,17.5,0,0,0-6.751-5.327h0a80.6,80.6,0,0,0-9.717-3.365h0a42.845,42.845,0,0,1-6.829-2.323h0a3.236,3.236,0,0,1-2.146-2.964h0q0-2.482,3.356-2.483h0a27.3,27.3,0,0,1,8.9,2h0a59.4,59.4,0,0,1,9.911,4.647h0L50.807,6.729A41.217,41.217,0,0,0,39.764,1.842h0A45.694,45.694,0,0,0,27,0h0A31.493,31.493,0,0,0,14.672,2.242Z" transform="translate(0.158 0.094)"/>
    </clipPath>
    <clipPath id="clip-path-3">
      <path id="Clip_17" data-name="Clip 17" class="cls-1" d="M24.305,55.76H0V0H25.025A35.835,35.835,0,0,1,41.1,3.421a26.422,26.422,0,0,1,6.1,4.146,24.679,24.679,0,0,1,4.537,5.6,28.3,28.3,0,0,1,3.759,14.675A27.785,27.785,0,0,1,51.65,42.556,24.785,24.785,0,0,1,47,48.134,27.564,27.564,0,0,1,40.736,52.3,37.14,37.14,0,0,1,24.305,55.76ZM18.549,14.318V41.442h6.956a9.894,9.894,0,0,0,8.035-3.659c1.989-2.427,3-5.719,3-9.785,0-4.116-1.089-7.461-3.237-9.942a10.946,10.946,0,0,0-8.675-3.739Z" transform="translate(0.228 0.089)"/>
    </clipPath>
    <clipPath id="clip-path-4">
      <path id="Clip_22" data-name="Clip 22" class="cls-1" d="M0,0H17.8V26.634H0Z" transform="translate(0.01 0.211)"/>
    </clipPath>
    <clipPath id="clip-path-5">
      <path id="Clip_27" data-name="Clip 27" class="cls-1" d="M35.247,0l-16.7,20.363V0H0V55.76H18.543V42.238l5.275-5.886L35.647,55.76h22.14L36.526,22.272,56.587,0Z" transform="translate(0.108 0.089)"/>
    </clipPath>
    <clipPath id="clip-path-6">
      <path id="Clip_32" data-name="Clip 32" class="cls-1" d="M27.037,62.48H0V0H27.838A39.637,39.637,0,0,1,45.715,3.832,29.391,29.391,0,0,1,52.5,8.479a27.637,27.637,0,0,1,5.048,6.272A29.224,29.224,0,0,1,60.678,22.4a35.737,35.737,0,0,1,1.045,8.79,35.358,35.358,0,0,1-1.068,8.847,28.5,28.5,0,0,1-3.2,7.643,27.725,27.725,0,0,1-5.169,6.25A30.657,30.657,0,0,1,45.314,58.6,41.06,41.06,0,0,1,27.037,62.48Zm-6.4-46.436V46.436h7.737a12,12,0,0,0,5.036-1.025,10.86,10.86,0,0,0,3.9-3.076c2.213-2.719,3.335-6.407,3.335-10.962a20.4,20.4,0,0,0-.9-6.261,14.061,14.061,0,0,0-2.7-4.88,11.664,11.664,0,0,0-4.214-3.142,13.585,13.585,0,0,0-5.437-1.047Z" transform="translate(0.108 0.274)"/>
    </clipPath>
    <clipPath id="clip-path-7">
      <path id="Clip_37" data-name="Clip 37" class="cls-1" d="M0,0V16.858H18.229V64.576H39.482V16.858H57.8V0Z" transform="translate(0.161 0.275)"/>
    </clipPath>
    <clipPath id="clip-path-8">
      <path id="Clip_45" data-name="Clip 45" class="cls-1" d="M38.36,72.671a44.864,44.864,0,0,1-10.412-1.179,38.659,38.659,0,0,1-9.316-3.536,36.048,36.048,0,0,1-7.809-5.622A34.856,34.856,0,0,1,1.233,46.04a40.28,40.28,0,0,1,0-19.781,34.154,34.154,0,0,1,9.59-16.12,35.685,35.685,0,0,1,7.809-5.523,39.144,39.144,0,0,1,9.316-3.462A45.793,45.793,0,0,1,38.36,0,45.32,45.32,0,0,1,48.772,1.167a38.911,38.911,0,0,1,9.316,3.5,36.144,36.144,0,0,1,7.809,5.56,34.338,34.338,0,0,1,9.591,16.108,38.206,38.206,0,0,1,1.233,9.8,38.988,38.988,0,0,1-1.233,9.9A34.846,34.846,0,0,1,65.9,62.334a36.062,36.062,0,0,1-7.809,5.622,38.671,38.671,0,0,1-9.316,3.536A44.861,44.861,0,0,1,38.36,72.671ZM30.444,21.717A11.791,11.791,0,0,0,18.633,33.486a16.416,16.416,0,0,0,2.615,8.661,27.581,27.581,0,0,0,6,6.7c4.5,3.717,9.427,5.891,11.111,5.973,1.683-.082,6.608-2.256,11.11-5.973a27.582,27.582,0,0,0,6-6.7,16.416,16.416,0,0,0,2.615-8.661A11.79,11.79,0,0,0,46.276,21.717,10.774,10.774,0,0,0,38.361,25.1,10.777,10.777,0,0,0,30.444,21.717Z" transform="translate(0.149 0.252)"/>
    </clipPath>
  </defs>
  <g id="Group_6" data-name="Group 6" transform="translate(-0.134 -0.28)">
    <g id="Group_10" data-name="Group 10">
      <path id="Fill_1" data-name="Fill 1" d="M0,0H0L0,0Z" transform="translate(144.674 87.909)"/>
      <g id="Group_5" data-name="Group 5">
        <path id="Clip_4-2" data-name="Clip 4" class="cls-1" d="M0,0H204.819V148.715H0Z" transform="translate(0.134 0.28)"/>
        <g id="Group_5-2" data-name="Group 5" class="cls-2">
          <path id="Fill_3" data-name="Fill 3" d="M197.843,109.189l0,0a27.434,27.434,0,0,0-2.284-2.481l9.262-19.563-5.359-3.4a49.666,49.666,0,0,0-13.153-5.712h0q-.882-.25-1.769-.469V38.613h18.255V7.512H131.83q-1.608-1.046-3.319-1.968h0a45.768,45.768,0,0,0-11.042-4.175,54.189,54.189,0,0,0-24.131-.017A45.974,45.974,0,0,0,82.305,5.479h0a43.3,43.3,0,0,0-7.525,5.04q-1.663,1.2-3.195,2.542A41.039,41.039,0,0,0,65.816,19.3q-.709-.738-1.463-1.434a36.338,36.338,0,0,0-8.409-5.774h0a41.733,41.733,0,0,0-9.973-3.464A52.646,52.646,0,0,0,34.917,7.512H0V147.677H32.8v-9.665l5.848,9.665H113.72a49.248,49.248,0,0,0,10.234-1.024,39.483,39.483,0,0,0,9.291-3.185,34.777,34.777,0,0,0,7.13-4.642,50.324,50.324,0,0,0,14.232,7.107,55.453,55.453,0,0,0,17.131,2.782,40.8,40.8,0,0,0,14.369-2.449,27.469,27.469,0,0,0,6.463-3.419,24.671,24.671,0,0,0,5.2-5.045,21.8,21.8,0,0,0,3.517-6.844,26.007,26.007,0,0,0,1.107-7.7,25.2,25.2,0,0,0-1.057-7.461,19.607,19.607,0,0,0-3.493-6.605" transform="translate(0.134 0.28)"/>
        </g>
      </g>
      <path id="Fill_6" data-name="Fill 6" d="M0,0H0Z" transform="translate(133.378 143.748)"/>
      <path id="Fill_8" data-name="Fill 8" class="cls-3" d="M45.154,20.835l6.69-14.129A42.558,42.558,0,0,0,40.575,1.836,47.658,47.658,0,0,0,27.554,0,32.817,32.817,0,0,0,14.971,2.235,18.558,18.558,0,0,0,6.609,8.661,16.57,16.57,0,0,0,3.663,18.44q0,5.747,2.867,9.18a17.546,17.546,0,0,0,6.809,5.069,74.47,74.47,0,0,0,9.836,3.153A40.521,40.521,0,0,1,30.3,38.117q2.269,1.077,2.269,2.994a2.588,2.588,0,0,1-1.194,2.355,6.048,6.048,0,0,1-3.265.759,29.511,29.511,0,0,1-10.671-2.595A37.548,37.548,0,0,1,6.848,35.363L0,49.333A42.61,42.61,0,0,0,13.021,56a48.3,48.3,0,0,0,14.932,2.435,33.667,33.667,0,0,0,11.866-2A18.578,18.578,0,0,0,48.3,50.331a16.259,16.259,0,0,0,3.145-10.178A14.676,14.676,0,0,0,48.5,30.614a17.8,17.8,0,0,0-6.888-5.308A83.568,83.568,0,0,0,31.7,21.952a44.439,44.439,0,0,1-6.968-2.315,3.23,3.23,0,0,1-2.19-2.954q0-2.474,3.424-2.474a28.427,28.427,0,0,1,9.079,2,61.3,61.3,0,0,1,10.114,4.63" transform="translate(143.92 83.384)"/>
    </g>
    <g id="Group_13" data-name="Group 13" transform="translate(144 84)">
      <path id="Clip_12-2" data-name="Clip 12" class="cls-1" d="M14.672,2.242A18.25,18.25,0,0,0,6.477,8.691h0A16.912,16.912,0,0,0,3.59,18.5h0q0,5.768,2.809,9.212h0A17.236,17.236,0,0,0,13.072,32.8h0a71.8,71.8,0,0,0,9.639,3.165h0A39.031,39.031,0,0,1,29.7,38.251h0a3.32,3.32,0,0,1,2.224,3h0a2.617,2.617,0,0,1-1.17,2.363h0a5.819,5.819,0,0,1-3.2.761h0q-4.214,0-10.458-2.6h0a36.624,36.624,0,0,1-10.38-6.288h0L0,49.506a41.414,41.414,0,0,0,12.76,6.689h0a46.321,46.321,0,0,0,14.633,2.444h0a32.3,32.3,0,0,0,11.629-2h0a18.236,18.236,0,0,0,8.312-6.128h0a16.587,16.587,0,0,0,3.082-10.214h0a14.969,14.969,0,0,0-2.888-9.573h0a17.5,17.5,0,0,0-6.751-5.327h0a80.6,80.6,0,0,0-9.717-3.365h0a42.845,42.845,0,0,1-6.829-2.323h0a3.236,3.236,0,0,1-2.146-2.964h0q0-2.482,3.356-2.483h0a27.3,27.3,0,0,1,8.9,2h0a59.4,59.4,0,0,1,9.911,4.647h0L50.807,6.729A41.217,41.217,0,0,0,39.764,1.842h0A45.694,45.694,0,0,0,27,0h0A31.493,31.493,0,0,0,14.672,2.242Z" transform="translate(0.158 0.094)"/>
      <g id="Group_13-2" data-name="Group 13" class="cls-4">
        <path id="Fill_11" data-name="Fill 11" class="cls-5" d="M7.757,0s3.879,18.01,11.636,17.252S31.173,3.355,37.566,6.7,59.473,26.731,63.536,20.854s2.032-10.806,2.032-10.806L71.13,3.033S80.4,25.593,89.236,19.148,93.409,8.531,93.409,8.531l1.6-1.327s-.445,13.46,12.854,12.891,17.916-8.341,25.119-3.791,13.458-5.256,13.458-5.256l6.647-3.1s3.168,14.991,14.8,12.716,13.483-9.1,20.317-4.55,10.8-3.412,10.8-3.412-1.195,24.456-1.195,25.025S0,34.693,0,34.693Z" transform="translate(-148.043 31.444)"/>
      </g>
    </g>
    <path id="Fill_14" data-name="Fill 14" class="cls-6" d="M24.092,56H0V0H24.806A35.127,35.127,0,0,1,40.734,3.435a25.042,25.042,0,0,1,10.541,9.786A28.721,28.721,0,0,1,55,27.959a28.191,28.191,0,0,1-3.8,14.779,24.823,24.823,0,0,1-4.606,5.6,27.3,27.3,0,0,1-6.212,4.184A36.409,36.409,0,0,1,24.092,56ZM18.386,14.379V41.621h6.895a9.756,9.756,0,0,0,7.964-3.675c1.973-2.437,2.973-5.743,2.973-9.826,0-4.134-1.08-7.493-3.21-9.985a10.783,10.783,0,0,0-8.6-3.755Z" transform="translate(91 86)"/>
    <g id="Group_18" data-name="Group 18" transform="translate(89 86)">
      <path id="Clip_17-2" data-name="Clip 17" class="cls-1" d="M24.305,55.76H0V0H25.025A35.835,35.835,0,0,1,41.1,3.421a26.422,26.422,0,0,1,6.1,4.146,24.679,24.679,0,0,1,4.537,5.6,28.3,28.3,0,0,1,3.759,14.675A27.785,27.785,0,0,1,51.65,42.556,24.785,24.785,0,0,1,47,48.134,27.564,27.564,0,0,1,40.736,52.3,37.14,37.14,0,0,1,24.305,55.76ZM18.549,14.318V41.442h6.956a9.894,9.894,0,0,0,8.035-3.659c1.989-2.427,3-5.719,3-9.785,0-4.116-1.089-7.461-3.237-9.942a10.946,10.946,0,0,0-8.675-3.739Z" transform="translate(0.228 0.089)"/>
      <g id="Group_18-2" data-name="Group 18" class="cls-7">
        <path id="Fill_16" data-name="Fill 16" class="cls-8" d="M7.947,0s3.974,17.883,11.921,17.13S31.936,3.332,38.485,6.654,60.928,26.543,65.09,20.707s2.082-10.73,2.082-10.73l5.7-6.965s9.494,22.4,18.549,16S95.694,8.471,95.694,8.471l1.641-1.318s-.456,13.366,13.168,12.8,18.354-8.283,25.733-3.765,13.787-5.219,13.787-5.219l6.809-3.079S160.077,22.778,172,20.519,185.811,11.483,192.812,16s11.063-3.388,11.063-3.388-1.224,24.284-1.224,24.848S0,34.449,0,34.449Z" transform="translate(-97.107 29.786)"/>
      </g>
    </g>
    <path id="Fill_19" data-name="Fill 19" class="cls-9" d="M0,56H18V0H0Z" transform="translate(66 86)"/>
    <g id="Group_23" data-name="Group 23" transform="translate(66 114)">
      <path id="Clip_22-2" data-name="Clip 22" class="cls-1" d="M0,0H17.8V26.634H0Z" transform="translate(0.01 0.211)"/>
      <g id="Group_23-2" data-name="Group 23" class="cls-10">
        <path id="Fill_21" data-name="Fill 21" class="cls-11" d="M7.624,0S11.436,18.275,19.06,17.506,30.637,3.4,36.92,6.8,58.451,27.125,62.444,21.161s2-10.965,2-10.965l5.466-7.118S79.015,25.97,87.7,19.43,91.8,8.657,91.8,8.657L93.377,7.31S92.94,20.969,106.01,20.391s17.608-8.464,24.687-3.847,13.226-5.333,13.226-5.333l6.532-3.146s3.113,15.212,14.55,12.9,13.251-9.234,19.968-4.617,10.613-3.463,10.613-3.463-1.174,24.817-1.174,25.394S0,35.2,0,35.2Z" transform="translate(-69.897 0.211)"/>
      </g>
    </g>
    <path id="Fill_24" data-name="Fill 24" class="cls-12" d="M36.661,22.368,56.8,0H35.378L18.611,20.451V0H0V56H18.611V42.419l5.295-5.911L35.779,56H58Z" transform="translate(7 86)"/>
    <g id="Group_28" data-name="Group 28" transform="translate(7 86)">
      <path id="Clip_27-2" data-name="Clip 27" class="cls-1" d="M35.247,0l-16.7,20.363V0H0V55.76H18.543V42.238l5.275-5.886L35.647,55.76h22.14L36.526,22.272,56.587,0Z" transform="translate(0.108 0.089)"/>
      <g id="Group_28-2" data-name="Group 28" class="cls-13">
        <path id="Fill_26" data-name="Fill 26" class="cls-14" d="M7.944,0s3.972,17.883,11.917,17.13,12.064-13.8,18.61-10.476,22.435,19.888,26.6,14.053,2.081-10.73,2.081-10.73l5.7-6.965s9.491,22.4,18.543,16S95.66,8.471,95.66,8.471L97.3,7.153s-.455,13.366,13.163,12.8,18.347-8.283,25.724-3.765,13.782-5.219,13.782-5.219l6.807-3.079s3.244,14.886,15.161,12.627S185.745,11.483,192.744,16,203.8,12.612,203.8,12.612s-1.223,24.284-1.223,24.848S0,34.449,0,34.449Z" transform="translate(-14.545 29.786)"/>
      </g>
    </g>
    <path id="Fill_29" data-name="Fill 29" class="cls-15" d="M27.158,63H0V0H27.962a45.909,45.909,0,0,1,9.626.966,34.888,34.888,0,0,1,8.331,2.9,29.51,29.51,0,0,1,6.812,4.685,27.836,27.836,0,0,1,5.07,6.324,29.533,29.533,0,0,1,3.149,7.718A36.168,36.168,0,0,1,62,31.455a35.787,35.787,0,0,1-1.072,8.92,28.765,28.765,0,0,1-3.216,7.705,27.927,27.927,0,0,1-5.193,6.3,30.791,30.791,0,0,1-7,4.707,36.356,36.356,0,0,1-8.543,2.932A47.292,47.292,0,0,1,27.158,63ZM20.726,16.177V46.823H28.5a12.014,12.014,0,0,0,5.059-1.034,10.916,10.916,0,0,0,3.919-3.1c2.223-2.741,3.35-6.46,3.35-11.054a20.639,20.639,0,0,0-.9-6.313,14.194,14.194,0,0,0-2.714-4.92,11.72,11.72,0,0,0-4.233-3.168,13.6,13.6,0,0,0-5.46-1.056Z" transform="translate(7 15)"/>
    <g id="Group_33" data-name="Group 33" transform="translate(7 15)">
      <path id="Clip_32-2" data-name="Clip 32" class="cls-1" d="M27.037,62.48H0V0H27.838A39.637,39.637,0,0,1,45.715,3.832,29.391,29.391,0,0,1,52.5,8.479a27.637,27.637,0,0,1,5.048,6.272A29.224,29.224,0,0,1,60.678,22.4a35.737,35.737,0,0,1,1.045,8.79,35.358,35.358,0,0,1-1.068,8.847,28.5,28.5,0,0,1-3.2,7.643,27.725,27.725,0,0,1-5.169,6.25A30.657,30.657,0,0,1,45.314,58.6,41.06,41.06,0,0,1,27.037,62.48Zm-6.4-46.436V46.436h7.737a12,12,0,0,0,5.036-1.025,10.86,10.86,0,0,0,3.9-3.076c2.213-2.719,3.335-6.407,3.335-10.962a20.4,20.4,0,0,0-.9-6.261,14.061,14.061,0,0,0-2.7-4.88,11.664,11.664,0,0,0-4.214-3.142,13.585,13.585,0,0,0-5.437-1.047Z" transform="translate(0.108 0.274)"/>
      <g id="Group_33-2" data-name="Group 33" class="cls-16">
        <path id="Fill_31" data-name="Fill 31" class="cls-17" d="M3.116,11.508S5.983,26.747,23.308,24.623s22.311-8.541,34.776-6.456S69.355,0,69.355,0s.82,12.34,8.8,15.3,15.331,4.33,19.943,8.7,13.462.5,21.189-3.123S130.4,22.125,141.356,6.761,157.17,21.626,163.9,19.627s6.11.5,16.829,3.373,4.986,16.238,4.986,16.238L0,40.862Z" transform="translate(-3.65 34.263)"/>
      </g>
    </g>
    <path id="Fill_34" data-name="Fill 34" class="cls-15" d="M0,16.969H18.291V65H39.616V16.969H58V0H0Z" transform="translate(138 15)"/>
    <g id="Group_38" data-name="Group 38" transform="translate(138 15)">
      <path id="Clip_37-2" data-name="Clip 37" class="cls-1" d="M0,0V16.858H18.229V64.576H39.482V16.858H57.8V0Z" transform="translate(0.161 0.275)"/>
      <g id="Group_38-2" data-name="Group 38" class="cls-18">
        <path id="Fill_36" data-name="Fill 36" class="cls-17" d="M3.118,11.555s2.869,15.3,20.205,13.169,22.326-8.576,34.8-6.483S69.4,0,69.4,0s.82,12.391,8.8,15.36S93.543,19.708,98.157,24.1s13.47.5,21.2-3.136,11.12,1.254,22.086-14.173,15.824,14.926,22.562,12.919,6.114.5,16.84,3.387S185.838,39.4,185.838,39.4L0,41.03Z" transform="translate(-134.946 34.404)"/>
      </g>
    </g>
    <g id="Group_43" data-name="Group 43" transform="translate(64 7)">
      <path id="Fill_39" data-name="Fill 39" d="M40.477,71.434A50.66,50.66,0,0,1,29.49,70.275,42.666,42.666,0,0,1,19.66,66.8a38.081,38.081,0,0,1-8.24-5.526A34.467,34.467,0,0,1,5.2,53.965a32.918,32.918,0,0,1-3.9-8.709,36.978,36.978,0,0,1,0-19.444,32.262,32.262,0,0,1,3.9-8.637A33.953,33.953,0,0,1,11.42,9.966a37.752,37.752,0,0,1,8.24-5.429,43.262,43.262,0,0,1,9.83-3.4A51.717,51.717,0,0,1,40.477,0,51.187,51.187,0,0,1,51.463,1.147a42.967,42.967,0,0,1,9.831,3.44,38.223,38.223,0,0,1,8.239,5.466,34.209,34.209,0,0,1,6.216,7.221,32.349,32.349,0,0,1,3.9,8.613,35.131,35.131,0,0,1,1.3,9.636,35.848,35.848,0,0,1-1.3,9.735,32.927,32.927,0,0,1-3.9,8.709,34.465,34.465,0,0,1-6.216,7.308A38.092,38.092,0,0,1,61.294,66.8a42.68,42.68,0,0,1-9.831,3.477A50.657,50.657,0,0,1,40.477,71.434ZM32.125,21.347a12.884,12.884,0,0,0-8.814,3.389,11.092,11.092,0,0,0-3.651,8.181A15.35,15.35,0,0,0,22.42,41.43a27.857,27.857,0,0,0,6.334,6.588c4.751,3.654,9.947,5.791,11.723,5.872,1.776-.081,6.973-2.218,11.724-5.872a27.857,27.857,0,0,0,6.334-6.588,15.35,15.35,0,0,0,2.759-8.513,11.092,11.092,0,0,0-3.651-8.181,12.884,12.884,0,0,0-8.813-3.389,11.792,11.792,0,0,0-8.353,3.326A11.787,11.787,0,0,0,32.125,21.347Z" transform="translate(0.032 1.489)"/>
      <path id="Fill_41" data-name="Fill 41" class="cls-19" d="M38.349,72.671a44.841,44.841,0,0,1-10.41-1.179,38.639,38.639,0,0,1-9.313-3.536,36.037,36.037,0,0,1-7.807-5.622A34.85,34.85,0,0,1,1.233,46.04a40.3,40.3,0,0,1,0-19.781,34.139,34.139,0,0,1,9.587-16.12,35.678,35.678,0,0,1,7.807-5.523,39.124,39.124,0,0,1,9.313-3.462A45.769,45.769,0,0,1,38.349,0,45.3,45.3,0,0,1,48.758,1.167a38.89,38.89,0,0,1,9.314,3.5,36.138,36.138,0,0,1,7.807,5.56,34.336,34.336,0,0,1,9.588,16.108,38.222,38.222,0,0,1,1.233,9.8,39,39,0,0,1-1.233,9.9,34.843,34.843,0,0,1-9.588,16.294,36.056,36.056,0,0,1-7.807,5.622,38.652,38.652,0,0,1-9.314,3.536A44.838,44.838,0,0,1,38.349,72.671ZM30.436,21.717a11.79,11.79,0,0,0-11.81,11.769,16.418,16.418,0,0,0,2.614,8.661,27.582,27.582,0,0,0,6,6.7c4.5,3.717,9.425,5.892,11.108,5.974,1.682-.082,6.606-2.256,11.107-5.974a27.581,27.581,0,0,0,6-6.7,16.419,16.419,0,0,0,2.614-8.661A11.789,11.789,0,0,0,46.263,21.717,10.771,10.771,0,0,0,38.35,25.1,10.774,10.774,0,0,0,30.436,21.717Z" transform="translate(2.16 0.252)"/>
    </g>
    <g id="Group_46" data-name="Group 46" transform="translate(67 7)">
      <path id="Clip_45-2" data-name="Clip 45" class="cls-1" d="M38.36,72.671a44.864,44.864,0,0,1-10.412-1.179,38.659,38.659,0,0,1-9.316-3.536,36.048,36.048,0,0,1-7.809-5.622A34.856,34.856,0,0,1,1.233,46.04a40.28,40.28,0,0,1,0-19.781,34.154,34.154,0,0,1,9.59-16.12,35.685,35.685,0,0,1,7.809-5.523,39.144,39.144,0,0,1,9.316-3.462A45.793,45.793,0,0,1,38.36,0,45.32,45.32,0,0,1,48.772,1.167a38.911,38.911,0,0,1,9.316,3.5,36.144,36.144,0,0,1,7.809,5.56,34.338,34.338,0,0,1,9.591,16.108,38.206,38.206,0,0,1,1.233,9.8,38.988,38.988,0,0,1-1.233,9.9A34.846,34.846,0,0,1,65.9,62.334a36.062,36.062,0,0,1-7.809,5.622,38.671,38.671,0,0,1-9.316,3.536A44.861,44.861,0,0,1,38.36,72.671ZM30.444,21.717A11.791,11.791,0,0,0,18.633,33.486a16.416,16.416,0,0,0,2.615,8.661,27.581,27.581,0,0,0,6,6.7c4.5,3.717,9.427,5.891,11.111,5.973,1.683-.082,6.608-2.256,11.11-5.973a27.582,27.582,0,0,0,6-6.7,16.416,16.416,0,0,0,2.615-8.661A11.79,11.79,0,0,0,46.276,21.717,10.774,10.774,0,0,0,38.361,25.1,10.777,10.777,0,0,0,30.444,21.717Z" transform="translate(0.149 0.252)"/>
      <g id="Group_46-2" data-name="Group 46" class="cls-20">
        <path id="Fill_44" data-name="Fill 44" class="cls-21" d="M3.391,12.453s3.12,16.491,21.977,14.193S49.651,17.4,63.217,19.659,75.484,0,75.484,0s.892,13.354,9.574,16.553,16.686,4.686,21.705,9.417,14.651.541,23.062-3.379,12.1,1.352,24.022-15.274,17.212,16.085,24.54,13.922,6.65.541,18.317,3.65,5.426,17.572,5.426,17.572L0,44.217Z" transform="translate(-74.701 38.522)"/>
      </g>
    </g>
    <path id="Fill_47" data-name="Fill 47" d="M151.762,10a5.575,5.575,0,0,1-1.92-.339,5.368,5.368,0,0,1-1.674-.99l.626-1.329a3.013,3.013,0,0,0,.459.4,4.315,4.315,0,0,0,.7.409,5.473,5.473,0,0,0,.865.318,3.413,3.413,0,0,0,.968.132,2.123,2.123,0,0,0,1.251-.319,1.091,1.091,0,0,0,.442-.941,1.106,1.106,0,0,0-.166-.624,1.466,1.466,0,0,0-.473-.437,3.91,3.91,0,0,0-.748-.339c-.3-.1-.634-.21-1.006-.319a10.009,10.009,0,0,1-1.134-.409,2.887,2.887,0,0,1-.8-.519,2.023,2.023,0,0,1-.484-.714,2.708,2.708,0,0,1-.165-.99,3.21,3.21,0,0,1,.245-1.281,2.728,2.728,0,0,1,.669-.942,2.827,2.827,0,0,1,1-.575A3.878,3.878,0,0,1,151.663,0a4.133,4.133,0,0,1,1.631.319,5.2,5.2,0,0,1,1.312.789l-.625,1.274a1.934,1.934,0,0,0-.356-.326,3.475,3.475,0,0,0-.545-.325,3.7,3.7,0,0,0-.687-.249,2.978,2.978,0,0,0-.767-.1,1.918,1.918,0,0,0-1.282.36,1.263,1.263,0,0,0-.41,1,1.2,1.2,0,0,0,.129.589,1.18,1.18,0,0,0,.4.4,2.9,2.9,0,0,0,.675.3c.273.089.59.185.944.284a10.323,10.323,0,0,1,1.2.4,3.322,3.322,0,0,1,.9.541,2.211,2.211,0,0,1,.571.782,2.872,2.872,0,0,1,.2,1.129,3.059,3.059,0,0,1-.251,1.288,2.4,2.4,0,0,1-.687.879,2.85,2.85,0,0,1-1.013.5A4.79,4.79,0,0,1,151.762,10Zm-86.2,0a5.575,5.575,0,0,1-1.92-.339,5.347,5.347,0,0,1-1.674-.99l.625-1.329a3.1,3.1,0,0,0,.46.4,4.121,4.121,0,0,0,.7.409,5.109,5.109,0,0,0,.865.318,3.227,3.227,0,0,0,.969.132,2.123,2.123,0,0,0,1.251-.319,1.092,1.092,0,0,0,.441-.941,1.106,1.106,0,0,0-.166-.624,1.478,1.478,0,0,0-.473-.437,3.91,3.91,0,0,0-.748-.339c-.239-.084-.578-.191-1.005-.319a9.209,9.209,0,0,1-1.135-.409,2.792,2.792,0,0,1-.8-.519,2.038,2.038,0,0,1-.484-.714,2.643,2.643,0,0,1-.166-.99,3.332,3.332,0,0,1,.245-1.281,2.721,2.721,0,0,1,.669-.942,2.844,2.844,0,0,1,1-.575A3.766,3.766,0,0,1,65.463,0a4.139,4.139,0,0,1,1.631.319,5.189,5.189,0,0,1,1.312.789l-.625,1.274a1.993,1.993,0,0,0-.355-.326,4.019,4.019,0,0,0-.546-.325,3.5,3.5,0,0,0-.687-.249,2.833,2.833,0,0,0-.767-.1,1.916,1.916,0,0,0-1.281.36,1.26,1.26,0,0,0-.411,1,1.2,1.2,0,0,0,.129.589,1.345,1.345,0,0,0,.4.4,2.836,2.836,0,0,0,.675.3c.274.089.591.185.944.284a8.3,8.3,0,0,1,1.2.4,3.36,3.36,0,0,1,.9.541,2.173,2.173,0,0,1,.57.782,2.968,2.968,0,0,1,.2,1.129A3.048,3.048,0,0,1,68.5,8.463a2.356,2.356,0,0,1-.687.879,2.908,2.908,0,0,1-1.012.5A5.11,5.11,0,0,1,65.561,10Zm-7.775,0a5.575,5.575,0,0,1-1.92-.339,5.347,5.347,0,0,1-1.674-.99l.625-1.329a3.107,3.107,0,0,0,.46.4,4.121,4.121,0,0,0,.7.409,5.352,5.352,0,0,0,.865.318,3.2,3.2,0,0,0,.969.132,2.123,2.123,0,0,0,1.251-.319,1.092,1.092,0,0,0,.441-.941,1.106,1.106,0,0,0-.166-.624,1.486,1.486,0,0,0-.472-.437,5.185,5.185,0,0,0-.749-.339c-.246-.086-.585-.194-1.005-.319a8.359,8.359,0,0,1-1.135-.409,2.792,2.792,0,0,1-.8-.519,2.038,2.038,0,0,1-.484-.714,2.643,2.643,0,0,1-.166-.99,3.338,3.338,0,0,1,.245-1.281,2.745,2.745,0,0,1,.669-.942,2.838,2.838,0,0,1,1-.575A3.759,3.759,0,0,1,57.688,0a4.139,4.139,0,0,1,1.631.319,5.187,5.187,0,0,1,1.312.789l-.625,1.274a1.973,1.973,0,0,0-.356-.326,4.007,4.007,0,0,0-.546-.325,3.515,3.515,0,0,0-.687-.249,2.823,2.823,0,0,0-.767-.1,1.916,1.916,0,0,0-1.281.36,1.26,1.26,0,0,0-.411,1,1.2,1.2,0,0,0,.129.589,1.366,1.366,0,0,0,.4.4,2.846,2.846,0,0,0,.675.3c.266.087.583.183.944.284a8.447,8.447,0,0,1,1.2.4,3.315,3.315,0,0,1,.9.541,2.181,2.181,0,0,1,.571.782,2.713,2.713,0,0,1,.2,1.129,3.048,3.048,0,0,1-.251,1.288,2.356,2.356,0,0,1-.687.879,2.878,2.878,0,0,1-1.012.5A5.132,5.132,0,0,1,57.786,10Zm139.523-.028a3.328,3.328,0,0,1-1.618-.409,4.26,4.26,0,0,1-1.3-1.1,5.34,5.34,0,0,1-.865-1.607,5.914,5.914,0,0,1-.312-1.912,5.793,5.793,0,0,1,.312-1.9,5.2,5.2,0,0,1,.865-1.579A4.141,4.141,0,0,1,195.7.4a3.547,3.547,0,0,1,1.655-.4,3.606,3.606,0,0,1,2.1.589,3.686,3.686,0,0,1,1.275,1.558l-1.055.859a2.676,2.676,0,0,0-.981-1.2,2.5,2.5,0,0,0-1.373-.4,2.161,2.161,0,0,0-1.116.3,2.856,2.856,0,0,0-.859.789,3.7,3.7,0,0,0-.545,1.143,4.8,4.8,0,0,0-.191,1.357,4.458,4.458,0,0,0,.215,1.4,3.753,3.753,0,0,0,.589,1.136,2.829,2.829,0,0,0,.889.769,2.274,2.274,0,0,0,1.115.284,2.536,2.536,0,0,0,1.27-.346,3.877,3.877,0,0,0,1.158-1.094V6.08H198.02V4.93H201V9.9h-1.153V8.684A3.288,3.288,0,0,1,197.309,9.972Zm-54.365,0a3.474,3.474,0,0,1-1.7-.422,4.344,4.344,0,0,1-1.318-1.122,5.293,5.293,0,0,1-.852-1.6,5.726,5.726,0,0,1-.3-1.842,5.63,5.63,0,0,1,.319-1.884,5.352,5.352,0,0,1,.878-1.592,4.278,4.278,0,0,1,1.324-1.1A3.562,3.562,0,0,1,142.969,0a3.38,3.38,0,0,1,1.7.436,4.4,4.4,0,0,1,1.313,1.142,5.484,5.484,0,0,1,.846,1.6,5.648,5.648,0,0,1,.3,1.822,5.707,5.707,0,0,1-.313,1.883,5.155,5.155,0,0,1-.877,1.586,4.409,4.409,0,0,1-1.331,1.094A3.505,3.505,0,0,1,142.944,9.972Zm.012-8.559a2.207,2.207,0,0,0-1.177.311,2.943,2.943,0,0,0-.87.81,3.827,3.827,0,0,0-.545,1.143,4.542,4.542,0,0,0-.191,1.309,4.589,4.589,0,0,0,.2,1.344,3.969,3.969,0,0,0,.559,1.149,2.828,2.828,0,0,0,.877.8,2.23,2.23,0,0,0,1.152.3,2.179,2.179,0,0,0,1.172-.311,2.9,2.9,0,0,0,.865-.824,3.925,3.925,0,0,0,.539-1.15,4.7,4.7,0,0,0-.013-2.651,3.723,3.723,0,0,0-.558-1.136,2.9,2.9,0,0,0-.87-.789A2.178,2.178,0,0,0,142.956,1.413ZM122.943,9.972a3.481,3.481,0,0,1-1.7-.422,4.367,4.367,0,0,1-1.319-1.122,5.307,5.307,0,0,1-.852-1.6,5.7,5.7,0,0,1-.3-1.842,5.54,5.54,0,0,1,.32-1.884,5.365,5.365,0,0,1,.877-1.592,4.278,4.278,0,0,1,1.324-1.1A3.575,3.575,0,0,1,122.967,0a3.38,3.38,0,0,1,1.7.436,4.256,4.256,0,0,1,1.312,1.142,5.471,5.471,0,0,1,.847,1.6,5.72,5.72,0,0,1,.3,1.822,5.826,5.826,0,0,1-.312,1.883,5.111,5.111,0,0,1-.878,1.586A4.414,4.414,0,0,1,124.6,9.563,3.5,3.5,0,0,1,122.943,9.972Zm.012-8.559a2.194,2.194,0,0,0-1.177.311,2.927,2.927,0,0,0-.87.81,3.81,3.81,0,0,0-.546,1.143,4.618,4.618,0,0,0-.19,1.309,4.537,4.537,0,0,0,.2,1.344,3.812,3.812,0,0,0,.558,1.149,2.848,2.848,0,0,0,.877.8,2.223,2.223,0,0,0,1.153.3,2.164,2.164,0,0,0,1.171-.311,2.9,2.9,0,0,0,.865-.824,3.951,3.951,0,0,0,.54-1.15,4.8,4.8,0,0,0,.184-1.3,4.542,4.542,0,0,0-.2-1.35A3.736,3.736,0,0,0,124.96,2.5a2.771,2.771,0,0,0-.871-.789A2.163,2.163,0,0,0,122.954,1.413ZM85.722,9.972a3.474,3.474,0,0,1-1.7-.422,4.36,4.36,0,0,1-1.318-1.122,5.34,5.34,0,0,1-.852-1.6A5.761,5.761,0,0,1,81.871,3.1a5.392,5.392,0,0,1,.877-1.592,4.231,4.231,0,0,1,1.325-1.1A3.557,3.557,0,0,1,85.747,0a3.381,3.381,0,0,1,1.7.436,4.405,4.405,0,0,1,1.311,1.142,5.464,5.464,0,0,1,.847,1.6A5.72,5.72,0,0,1,89.9,5a5.858,5.858,0,0,1-.312,1.883,5.176,5.176,0,0,1-.877,1.586,4.388,4.388,0,0,1-1.33,1.094A3.507,3.507,0,0,1,85.722,9.972Zm.013-8.559a2.159,2.159,0,0,0-1.177.311,2.911,2.911,0,0,0-.871.81,3.828,3.828,0,0,0-.545,1.143,4.452,4.452,0,0,0-.191,1.309,4.5,4.5,0,0,0,.2,1.344A3.836,3.836,0,0,0,83.7,7.479a2.821,2.821,0,0,0,.878.8,2.186,2.186,0,0,0,1.153.3,2.134,2.134,0,0,0,1.171-.311,2.9,2.9,0,0,0,.865-.824,3.925,3.925,0,0,0,.539-1.15,4.87,4.87,0,0,0,.184-1.3,4.64,4.64,0,0,0-.2-1.35A3.763,3.763,0,0,0,87.74,2.5a2.719,2.719,0,0,0-.871-.789A2.132,2.132,0,0,0,85.735,1.413Zm99.7,8.491h-1.373V.069h1.079l4.979,7.091V.083h1.386V9.9h-1.14l-4.93-6.925V9.9Zm-12.006,0h-1.374V.069h3.79a2.222,2.222,0,0,1,1.085.277,2.838,2.838,0,0,1,.852.727,3.61,3.61,0,0,1,.76,2.194,3.73,3.73,0,0,1-.122.957,3.608,3.608,0,0,1-.344.844,2.641,2.641,0,0,1-.539.672,2.168,2.168,0,0,1-.7.422L178.888,9.9l-1.556,0-1.889-3.421h-2.011V9.9Zm0-8.464V5.11h2.4a1.012,1.012,0,0,0,.534-.145,1.371,1.371,0,0,0,.41-.4,2.182,2.182,0,0,0,.27-.589,2.555,2.555,0,0,0,.1-.707,2.156,2.156,0,0,0-.117-.706,2.089,2.089,0,0,0-.306-.581,1.518,1.518,0,0,0-.442-.4,1.014,1.014,0,0,0-.521-.146ZM75.09,9.9H73.716V.069h3.789a2.31,2.31,0,0,1,1.085.277,2.773,2.773,0,0,1,.852.727,3.61,3.61,0,0,1,.76,2.194,3.955,3.955,0,0,1-.122.957,3.6,3.6,0,0,1-.344.844,2.586,2.586,0,0,1-.539.672,2.173,2.173,0,0,1-.7.422L80.546,9.9l-1.556,0L77.1,6.482H75.09V9.9Zm0-8.464V5.11h2.4a1,1,0,0,0,.533-.145,1.294,1.294,0,0,0,.411-.4,2.182,2.182,0,0,0,.27-.589,2.724,2.724,0,0,0,.1-.707,2.272,2.272,0,0,0-.117-.706,2.062,2.062,0,0,0-.306-.581,1.529,1.529,0,0,0-.442-.4,1.1,1.1,0,0,0-.521-.146ZM32.9,9.9H31.53V.069h3.789A2.343,2.343,0,0,1,36.4.346a2.75,2.75,0,0,1,.852.727A3.669,3.669,0,0,1,37.814,2.1a3.737,3.737,0,0,1,.2,1.17,4.023,4.023,0,0,1-.122.957,3.594,3.594,0,0,1-.344.844,2.593,2.593,0,0,1-.539.672,2.156,2.156,0,0,1-.7.422L38.359,9.9,36.8,9.9,34.915,6.482H32.9V9.9Zm0-8.464V5.11h2.4a1,1,0,0,0,.533-.145,1.294,1.294,0,0,0,.411-.4,2.182,2.182,0,0,0,.27-.589,2.789,2.789,0,0,0,.1-.707,2.351,2.351,0,0,0-.117-.706,2.048,2.048,0,0,0-.306-.581,1.53,1.53,0,0,0-.442-.4,1.17,1.17,0,0,0-.521-.146ZM91.867,9.9h-1.46L93.866.069h1.2L98.5,9.9H97.054l-.92-2.673H92.774L91.867,9.9Zm2.6-8.048L93.02,6.08h2.845ZM7.934,9.9H6.476L9.933.069h1.2L14.568,9.9H13.122L12.2,7.23H8.842L7.934,9.9Zm2.6-8.048L9.087,6.08h2.845ZM181.821,9.9h-1.374V.069h1.374V9.9Zm-21.781,0h-1.385V1.44h-2.906V.069h7.186V1.44H160.04V9.9Zm-26.527,0h-1.372l0-9.833h5.8V1.44h-4.427V4.377h3.7V5.665h-3.7V9.9Zm-18.126,0H114l0-8.463H111.1V.069h7.187V1.44h-2.894V9.9ZM17.3,9.9H15.931V.069h3.655A2.36,2.36,0,0,1,20.67.346a2.746,2.746,0,0,1,.852.727A3.669,3.669,0,0,1,22.081,2.1a3.764,3.764,0,0,1,.2,1.17,3.565,3.565,0,0,1-.191,1.2,3.507,3.507,0,0,1-.533,1.025,2.759,2.759,0,0,1-.828.72,2.176,2.176,0,0,1-1.073.27H17.3V9.9Zm0-8.463V5.11h2.269a.929.929,0,0,0,.534-.138,1.292,1.292,0,0,0,.411-.389A2.041,2.041,0,0,0,20.786,4a2.874,2.874,0,0,0,.1-.734,2.368,2.368,0,0,0-.11-.747,1.991,1.991,0,0,0-.307-.575,1.456,1.456,0,0,0-.447-.373A.975.975,0,0,0,19.5,1.44ZM1.373,9.9H0V.069H3.654A2.378,2.378,0,0,1,4.74.346a2.746,2.746,0,0,1,.852.727A3.669,3.669,0,0,1,6.151,2.1a3.817,3.817,0,0,1,.2,1.17,3.543,3.543,0,0,1-.191,1.2,3.437,3.437,0,0,1-.534,1.025,2.668,2.668,0,0,1-.827.72,2.176,2.176,0,0,1-1.073.27H1.373V9.9Zm0-8.463V5.11H3.642a.917.917,0,0,0,.534-.138,1.275,1.275,0,0,0,.41-.389A2.025,2.025,0,0,0,4.856,4a2.917,2.917,0,0,0,.1-.734,2.122,2.122,0,0,0-.111-.747,1.829,1.829,0,0,0-.306-.575,1.468,1.468,0,0,0-.448-.373.953.953,0,0,0-.521-.132ZM170.354,9.9h-5.972V.069h5.862V1.44h-4.488v2.8h3.887V5.526h-3.887V8.531h4.6V9.9Zm-67.4,0H99.862V.069h3.091A4.169,4.169,0,0,1,104.8.457a3.768,3.768,0,0,1,1.324,1.053,4.6,4.6,0,0,1,.8,1.558,6.716,6.716,0,0,1,.269,1.9A6.475,6.475,0,0,1,106.9,7a4.579,4.579,0,0,1-.852,1.552,3.736,3.736,0,0,1-1.337,1A4.249,4.249,0,0,1,102.953,9.9ZM101.236,1.44V8.531h1.717a2.754,2.754,0,0,0,1.22-.269,2.536,2.536,0,0,0,.895-.748,3.38,3.38,0,0,0,.546-1.129,5.349,5.349,0,0,0,.184-1.412,5.094,5.094,0,0,0-.19-1.426,3.247,3.247,0,0,0-.558-1.115,2.652,2.652,0,0,0-.9-.727,2.746,2.746,0,0,0-1.2-.264ZM53.334,9.9H47.362V.069h5.863V1.44H48.736v2.8h3.887V5.526H48.736V8.531h4.6V9.9Zm-7.37,0H39.918V.069h1.373V8.531h4.673V9.9Zm-16.139,0H23.853V.069h5.862V1.44H25.226v2.8h3.887V5.526H25.226V8.531h4.6V9.9Z" transform="translate(1 162)"/>
  </g>
</svg>
