<svg xmlns="http://www.w3.org/2000/svg" xmlns:xlink="http://www.w3.org/1999/xlink" viewBox="0 0 712.37 516.011">
  <defs>
    <style>
      .cls-1 {
        fill: none;
      }

      .cls-2 {
        clip-path: url(#clip-path);
      }

      .cls-3 {
        fill: #56cfe2;
      }

      .cls-4 {
        clip-path: url(#clip-path-2);
      }

      .cls-5 {
        fill: #30b9d8;
      }

      .cls-6 {
        fill: #af5aaf;
      }

      .cls-7 {
        clip-path: url(#clip-path-3);
      }

      .cls-8 {
        fill: #974499;
      }

      .cls-9 {
        fill: #8dc63f;
      }

      .cls-10 {
        clip-path: url(#clip-path-4);
      }

      .cls-11 {
        fill: #7eaf31;
      }

      .cls-12 {
        fill: #f7ca15;
      }

      .cls-13 {
        clip-path: url(#clip-path-5);
      }

      .cls-14 {
        fill: #fbb040;
      }

      .cls-15 {
        fill: #fff;
      }

      .cls-16 {
        clip-path: url(#clip-path-6);
      }

      .cls-17 {
        fill: #e6e7e8;
      }

      .cls-18 {
        clip-path: url(#clip-path-7);
      }

      .cls-19 {
        fill: #fd0f47;
      }

      .cls-20 {
        clip-path: url(#clip-path-8);
      }

      .cls-21 {
        fill: #e2003b;
      }
    </style>
    <clipPath id="clip-path">
      <path id="Clip_4" data-name="Clip 4" class="cls-1" d="M0,0H712.37V516.011H0Z" transform="translate(0.466 0.597)"/>
    </clipPath>
    <clipPath id="clip-path-2">
      <path id="Clip_12" data-name="Clip 12" class="cls-1" d="M52.071,7.754q-18.838,7.758-29.083,22.3h0Q12.739,44.593,12.741,63.982h0q0,19.943,9.97,31.853h0a61.037,61.037,0,0,0,23.681,17.589h0A259.6,259.6,0,0,0,80.6,124.365h0q16.893,4.152,24.791,7.894h0q7.892,3.738,7.892,10.386h0q0,5.542-4.154,8.171h0q-4.153,2.636-11.357,2.631h0q-14.957,0-37.114-9h0q-22.164-9-36.84-21.742h0L0,171.174Q19.112,185.859,45.286,194.3h0a168.341,168.341,0,0,0,51.933,8.449h0q22.711,0,41.271-6.925h0q18.556-6.919,29.5-21.188h0q10.937-14.262,10.939-35.316h0q0-20.493-10.248-33.1h0A61.9,61.9,0,0,0,144.723,87.8h0a291,291,0,0,0-34.485-11.634h0Q93.619,71.74,86,68.137h0q-7.619-3.6-7.616-10.249h0q0-8.582,11.91-8.586h0q12.185,0,31.577,6.924h0a213.542,213.542,0,0,1,35.176,16.066h0l23.267-49.027q-16.622-10.521-39.193-16.9h0A166.121,166.121,0,0,0,95.835,0h0Q70.908,0,52.071,7.754Z" transform="translate(0.56 0.949)"/>
    </clipPath>
    <clipPath id="clip-path-3">
      <path id="Clip_17" data-name="Clip 17" class="cls-1" d="M84.2,194.165H0V0H86.7a143.128,143.128,0,0,1,29.842,2.979,108.655,108.655,0,0,1,25.83,8.931,91.532,91.532,0,0,1,21.118,14.438,85.878,85.878,0,0,1,15.72,19.492,90.685,90.685,0,0,1,9.765,23.786,110.831,110.831,0,0,1,3.256,27.318,109.656,109.656,0,0,1-3.324,27.492,88.424,88.424,0,0,1-9.971,23.747,86.243,86.243,0,0,1-16.1,19.425,95.454,95.454,0,0,1-21.71,14.506,113.159,113.159,0,0,1-26.486,9.038A147.47,147.47,0,0,1,84.2,194.165ZM64.26,49.858v94.449h24.1a37.453,37.453,0,0,0,15.685-3.184,33.808,33.808,0,0,0,12.152-9.555,43.394,43.394,0,0,0,7.79-14.887,66.027,66.027,0,0,0,2.6-19.185,63.256,63.256,0,0,0-2.8-19.456,43.68,43.68,0,0,0-8.413-15.165,36.313,36.313,0,0,0-13.122-9.763A42.387,42.387,0,0,0,85.31,49.858Z" transform="translate(0.789 0.934)"/>
    </clipPath>
    <clipPath id="clip-path-4">
      <path id="Clip_22" data-name="Clip 22" class="cls-1" d="M0,0H64.261V90.754H0Z" transform="translate(0.035 0.345)"/>
    </clipPath>
    <clipPath id="clip-path-5">
      <path id="Clip_27" data-name="Clip 27" class="cls-1" d="M122.149,0,64.26,70.907V0H0V194.165H64.26V147.078l18.28-20.5,40.994,67.583h76.725L126.581,77.555,196.1,0Z" transform="translate(0.375 0.934)"/>
    </clipPath>
    <clipPath id="clip-path-6">
      <path id="Clip_32" data-name="Clip 32" class="cls-1" d="M93.758,216.2H0V0H96.534a159.4,159.4,0,0,1,33.23,3.317,121,121,0,0,1,28.762,9.944,101.912,101.912,0,0,1,23.515,16.077,95.652,95.652,0,0,1,17.5,21.7,101.015,101.015,0,0,1,10.87,26.485,123.434,123.434,0,0,1,3.624,30.417,122.114,122.114,0,0,1-3.7,30.612A98.449,98.449,0,0,1,199.236,165a95.99,95.99,0,0,1-17.926,21.629,106.287,106.287,0,0,1-24.172,16.152,126.026,126.026,0,0,1-29.493,10.063A164.212,164.212,0,0,1,93.758,216.2ZM71.553,55.515v105.17H98.385a41.687,41.687,0,0,0,17.464-3.546A37.652,37.652,0,0,0,129.38,146.5a48.315,48.315,0,0,0,8.674-16.574,73.5,73.5,0,0,0,2.892-21.361A70.426,70.426,0,0,0,137.824,86.9a48.64,48.64,0,0,0-9.368-16.886,40.442,40.442,0,0,0-14.612-10.872,47.192,47.192,0,0,0-18.852-3.624Z" transform="translate(0.375 0.572)"/>
    </clipPath>
    <clipPath id="clip-path-7">
      <path id="Clip_37" data-name="Clip 37" class="cls-1" d="M0,0V58.1H63.174V222.538h73.651V58.1h63.492V0Z" transform="translate(0.558 0.572)"/>
    </clipPath>
    <clipPath id="clip-path-8">
      <path id="Clip_45" data-name="Clip 45" class="cls-1" d="M133.513,253.848a165.365,165.365,0,0,1-18.6-1.03,147.143,147.143,0,0,1-17.643-3.089,136.481,136.481,0,0,1-16.689-5.147,132.836,132.836,0,0,1-15.734-7.2,130.707,130.707,0,0,1-14.424-9.027,121.22,121.22,0,0,1-12.755-10.61,118.821,118.821,0,0,1-11.086-12.192,123.365,123.365,0,0,1-9.417-13.774A121.129,121.129,0,0,1,4.292,160.823a129.765,129.765,0,0,1-3.219-16.841,147.2,147.2,0,0,1,0-35.481A128.313,128.313,0,0,1,4.292,91.726,119.8,119.8,0,0,1,26.583,47.435,116.97,116.97,0,0,1,37.669,35.416,119.743,119.743,0,0,1,50.424,24.98a129.638,129.638,0,0,1,14.424-8.854A134.073,134.073,0,0,1,80.583,9.07,138.552,138.552,0,0,1,97.272,4.031,158.845,158.845,0,0,1,133.513,0a157.183,157.183,0,0,1,36.238,4.076A137.536,137.536,0,0,1,186.44,9.169a133.521,133.521,0,0,1,15.736,7.13A131.391,131.391,0,0,1,216.6,25.23a121.18,121.18,0,0,1,12.756,10.49,118.052,118.052,0,0,1,11.087,12.05,121.832,121.832,0,0,1,9.418,13.611,118.877,118.877,0,0,1,12.875,30.606,127.116,127.116,0,0,1,3.219,16.667,141.889,141.889,0,0,1,1.073,17.577,144.73,144.73,0,0,1-1.073,17.751,129.756,129.756,0,0,1-3.219,16.841,122.452,122.452,0,0,1-22.293,44.725,118.817,118.817,0,0,1-11.087,12.192A121.264,121.264,0,0,1,216.6,228.35a130.767,130.767,0,0,1-14.423,9.027,132.871,132.871,0,0,1-15.736,7.2,136.509,136.509,0,0,1-16.689,5.147,147.148,147.148,0,0,1-17.642,3.089A165.322,165.322,0,0,1,133.513,253.848ZM105.963,75.861A41.078,41.078,0,0,0,64.85,116.974c0,10.23,3.062,20.409,9.1,30.253a96.237,96.237,0,0,0,20.891,23.41A127.031,127.031,0,0,0,117.9,185.848c6.557,3.338,12.538,5.5,15.61,5.655,3.072-.151,9.053-2.318,15.609-5.655a127.028,127.028,0,0,0,23.06-15.211,96.237,96.237,0,0,0,20.891-23.41c6.039-9.844,9.1-20.023,9.1-30.253a41.077,41.077,0,0,0-41.112-41.113,37.443,37.443,0,0,0-27.55,11.816A37.446,37.446,0,0,0,105.963,75.861Z" transform="translate(0.518 0.506)"/>
    </clipPath>
  </defs>
  <g id="Group_4" data-name="Group 4" transform="translate(-27.466 0)">
    <g id="Group_10" data-name="Group 10" transform="translate(27 -0.597)">
      <path id="Fill_1" data-name="Fill 1" d="M0,.007a0,0,0,0,1,0,0L0,0Z" transform="translate(503.184 304.65)"/>
      <g id="Group_5" data-name="Group 5">
        <path id="Clip_4-2" data-name="Clip 4" class="cls-1" d="M0,0H712.37V516.011H0Z" transform="translate(0.466 0.597)"/>
        <g id="Group_5-2" data-name="Group 5" class="cls-2">
          <path id="Fill_3" data-name="Fill 3" d="M688.106,378.865l-.007-.009a95.28,95.28,0,0,0-7.943-8.608l32.215-67.879-18.638-11.8c-13.476-8.528-28.8-15.033-45.748-19.821l-.007,0q-3.069-.867-6.151-1.627V133.978h63.492V26.065H458.51q-5.592-3.63-11.543-6.827l-.005,0a159.417,159.417,0,0,0-38.4-14.486,188.909,188.909,0,0,0-83.929-.058,160.137,160.137,0,0,0-38.367,14.321h0A150.618,150.618,0,0,0,260.091,36.5q-5.784,4.166-11.112,8.819a142.526,142.526,0,0,0-20.066,21.647q-2.467-2.562-5.088-4.974a126.4,126.4,0,0,0-29.248-20.033l-.008,0a145.382,145.382,0,0,0-34.685-12.021,183.526,183.526,0,0,0-38.441-3.868H0V512.411H114.078V478.877l20.34,33.534H395.525a171.679,171.679,0,0,0,35.593-3.553,137.547,137.547,0,0,0,32.314-11.052,120.989,120.989,0,0,0,24.8-16.106,175.194,175.194,0,0,0,49.5,24.659,193.287,193.287,0,0,0,59.581,9.652c17.662.005,34.477-2.711,49.976-8.5a95.617,95.617,0,0,0,22.479-11.863,85.714,85.714,0,0,0,18.081-17.505A75.575,75.575,0,0,0,700.082,454.4a90.04,90.04,0,0,0,3.85-26.727,87.258,87.258,0,0,0-3.678-25.888,67.98,67.98,0,0,0-12.148-22.919" transform="translate(0.466 0.597)"/>
        </g>
      </g>
      <path id="Fill_6" data-name="Fill 6" d="M0,0H0Z" transform="translate(463.895 498.403)"/>
      <path id="Fill_8" data-name="Fill 8" class="cls-3" d="M157.048,72.292l23.268-49.026q-16.621-10.523-39.194-16.9A166.123,166.123,0,0,0,95.835,0Q70.908,0,52.071,7.754t-29.083,22.3Q12.739,44.593,12.74,63.982q0,19.943,9.971,31.853a61.015,61.015,0,0,0,23.682,17.589A259.451,259.451,0,0,0,80.6,124.365q16.892,4.154,24.79,7.894t7.892,10.387q0,5.543-4.154,8.17t-11.356,2.632q-14.957,0-37.115-9T23.819,122.7L0,171.174Q19.11,185.86,45.286,194.3a168.336,168.336,0,0,0,51.933,8.449q22.711,0,41.271-6.926t29.5-21.187q10.938-14.264,10.94-35.317,0-20.493-10.248-33.1A61.884,61.884,0,0,0,144.723,87.8a291.126,291.126,0,0,0-34.486-11.635Q93.62,71.741,86,68.138T78.385,57.889q0-8.583,11.91-8.586,12.185,0,31.577,6.924a213.458,213.458,0,0,1,35.176,16.065" transform="translate(500.56 288.949)"/>
    </g>
    <g id="Group_13" data-name="Group 13" transform="translate(527 287.403)">
      <path id="Clip_12-2" data-name="Clip 12" class="cls-1" d="M52.071,7.754q-18.838,7.758-29.083,22.3h0Q12.739,44.593,12.741,63.982h0q0,19.943,9.97,31.853h0a61.037,61.037,0,0,0,23.681,17.589h0A259.6,259.6,0,0,0,80.6,124.365h0q16.893,4.152,24.791,7.894h0q7.892,3.738,7.892,10.386h0q0,5.542-4.154,8.171h0q-4.153,2.636-11.357,2.631h0q-14.957,0-37.114-9h0q-22.164-9-36.84-21.742h0L0,171.174Q19.112,185.859,45.286,194.3h0a168.341,168.341,0,0,0,51.933,8.449h0q22.711,0,41.271-6.925h0q18.556-6.919,29.5-21.188h0q10.937-14.262,10.939-35.316h0q0-20.493-10.248-33.1h0A61.9,61.9,0,0,0,144.723,87.8h0a291,291,0,0,0-34.485-11.634h0Q93.619,71.74,86,68.137h0q-7.619-3.6-7.616-10.249h0q0-8.582,11.91-8.586h0q12.185,0,31.577,6.924h0a213.542,213.542,0,0,1,35.176,16.066h0l23.267-49.027q-16.622-10.521-39.193-16.9h0A166.121,166.121,0,0,0,95.835,0h0Q70.908,0,52.071,7.754Z" transform="translate(0.56 0.949)"/>
      <g id="Group_13-2" data-name="Group 13" class="cls-4">
        <path id="Fill_11" data-name="Fill 11" class="cls-5" d="M27.531,0S41.3,62.272,68.828,59.65,110.635,11.6,133.322,23.171s77.75,69.254,92.17,48.933S232.7,34.741,232.7,34.741l19.739-24.254s32.89,78,64.26,55.718S331.51,29.5,331.51,29.5l5.685-4.589s-1.578,46.541,45.618,44.574S446.4,40.641,471.961,56.373,519.722,38.2,519.722,38.2l23.589-10.72s11.243,51.834,52.54,43.968,47.852-31.464,72.1-15.732,38.326-11.8,38.326-11.8-4.24,84.56-4.24,86.526S0,119.956,0,119.956Z" transform="translate(-525.406 109.345)"/>
      </g>
    </g>
    <path id="Fill_14" data-name="Fill 14" class="cls-6" d="M84.2,194.165H0V0H86.7a143.144,143.144,0,0,1,29.842,2.979,108.608,108.608,0,0,1,25.83,8.932,91.516,91.516,0,0,1,21.118,14.437,85.884,85.884,0,0,1,15.72,19.492,90.674,90.674,0,0,1,9.765,23.786,110.829,110.829,0,0,1,3.256,27.317,109.659,109.659,0,0,1-3.324,27.493,88.442,88.442,0,0,1-9.971,23.749,86.243,86.243,0,0,1-16.1,19.425,95.454,95.454,0,0,1-21.71,14.506,113.184,113.184,0,0,1-26.486,9.038A147.461,147.461,0,0,1,84.2,194.165ZM64.259,49.857v94.45h24.1a37.448,37.448,0,0,0,15.685-3.184,33.816,33.816,0,0,0,12.152-9.555,43.4,43.4,0,0,0,7.791-14.886,66.009,66.009,0,0,0,2.6-19.184,63.239,63.239,0,0,0-2.8-19.456,43.69,43.69,0,0,0-8.414-15.165,36.323,36.323,0,0,0-13.123-9.764,42.382,42.382,0,0,0-16.93-3.255Z" transform="translate(338.789 293.337)"/>
    <g id="Group_18" data-name="Group 18" transform="translate(338 292.403)">
      <path id="Clip_17-2" data-name="Clip 17" class="cls-1" d="M84.2,194.165H0V0H86.7a143.128,143.128,0,0,1,29.842,2.979,108.655,108.655,0,0,1,25.83,8.931,91.532,91.532,0,0,1,21.118,14.438,85.878,85.878,0,0,1,15.72,19.492,90.685,90.685,0,0,1,9.765,23.786,110.831,110.831,0,0,1,3.256,27.318,109.656,109.656,0,0,1-3.324,27.492,88.424,88.424,0,0,1-9.971,23.747,86.243,86.243,0,0,1-16.1,19.425,95.454,95.454,0,0,1-21.71,14.506,113.159,113.159,0,0,1-26.486,9.038A147.47,147.47,0,0,1,84.2,194.165ZM64.26,49.858v94.449h24.1a37.453,37.453,0,0,0,15.685-3.184,33.808,33.808,0,0,0,12.152-9.555,43.394,43.394,0,0,0,7.79-14.887,66.027,66.027,0,0,0,2.6-19.185,63.256,63.256,0,0,0-2.8-19.456,43.68,43.68,0,0,0-8.413-15.165,36.313,36.313,0,0,0-13.122-9.763A42.387,42.387,0,0,0,85.31,49.858Z" transform="translate(0.789 0.934)"/>
      <g id="Group_18-2" data-name="Group 18" class="cls-7">
        <path id="Fill_16" data-name="Fill 16" class="cls-8" d="M27.531,0S41.3,62.272,68.828,59.65,110.635,11.6,133.322,23.171s77.75,69.254,92.17,48.933S232.7,34.741,232.7,34.741l19.739-24.254s32.89,78,64.26,55.718S331.51,29.5,331.51,29.5l5.685-4.589s-1.578,46.541,45.618,44.574S446.4,40.641,471.961,56.373,519.722,38.2,519.722,38.2l23.589-10.72s11.243,51.834,52.54,43.968,47.852-31.464,72.1-15.732,38.326-11.8,38.326-11.8-4.24,84.56-4.24,86.526S0,119.956,0,119.956Z" transform="translate(-336.406 104.345)"/>
      </g>
    </g>
    <path id="Fill_19" data-name="Fill 19" class="cls-9" d="M0,194.165H64.26V0H0Z" transform="translate(254.035 293.337)"/>
    <g id="Group_23" data-name="Group 23" transform="translate(254 396.403)">
      <path id="Clip_22-2" data-name="Clip 22" class="cls-1" d="M0,0H64.261V90.754H0Z" transform="translate(0.035 0.345)"/>
      <g id="Group_23-2" data-name="Group 23" class="cls-10">
        <path id="Fill_21" data-name="Fill 21" class="cls-11" d="M27.531,0S41.3,62.272,68.828,59.65,110.635,11.6,133.322,23.171s77.75,69.254,92.17,48.933S232.7,34.741,232.7,34.741l19.739-24.254s32.89,78,64.26,55.718S331.51,29.5,331.51,29.5l5.685-4.589s-1.578,46.541,45.618,44.574S446.4,40.641,471.961,56.373,519.722,38.2,519.722,38.2l23.589-10.72s11.243,51.834,52.54,43.968,47.852-31.464,72.1-15.732,38.326-11.8,38.326-11.8-4.24,84.56-4.24,86.526S0,119.956,0,119.956Z" transform="translate(-252.406 0.345)"/>
      </g>
    </g>
    <path id="Fill_24" data-name="Fill 24" class="cls-12" d="M126.581,77.555,196.1,0H122.15L64.26,70.908V0H0V194.165H64.26V147.078l18.281-20.5,40.993,67.583h76.725Z" transform="translate(52.375 293.337)"/>
    <g id="Group_28" data-name="Group 28" transform="translate(52 292.403)">
      <path id="Clip_27-2" data-name="Clip 27" class="cls-1" d="M122.149,0,64.26,70.907V0H0V194.165H64.26V147.078l18.28-20.5,40.994,67.583h76.725L126.581,77.555,196.1,0Z" transform="translate(0.375 0.934)"/>
      <g id="Group_28-2" data-name="Group 28" class="cls-13">
        <path id="Fill_26" data-name="Fill 26" class="cls-14" d="M27.531,0S41.3,62.272,68.828,59.65,110.635,11.6,133.322,23.171s77.75,69.254,92.17,48.933S232.7,34.741,232.7,34.741l19.739-24.254s32.89,78,64.26,55.718S331.51,29.5,331.51,29.5l5.685-4.589s-1.578,46.541,45.618,44.574S446.4,40.641,471.961,56.373,519.722,38.2,519.722,38.2l23.589-10.72s11.243,51.834,52.54,43.968,47.852-31.464,72.1-15.732,38.326-11.8,38.326-11.8-4.24,84.56-4.24,86.526S0,119.956,0,119.956Z" transform="translate(-50.406 104.345)"/>
      </g>
    </g>
    <path id="Fill_29" data-name="Fill 29" class="cls-15" d="M93.759,216.2H0V0H96.534a159.387,159.387,0,0,1,33.23,3.317,120.973,120.973,0,0,1,28.762,9.945,101.879,101.879,0,0,1,23.516,16.076,95.642,95.642,0,0,1,17.5,21.7,101.007,101.007,0,0,1,10.871,26.486,123.43,123.43,0,0,1,3.625,30.417,122.115,122.115,0,0,1-3.7,30.613A98.44,98.44,0,0,1,199.237,165a95.991,95.991,0,0,1-17.926,21.629,106.309,106.309,0,0,1-24.173,16.153,126.055,126.055,0,0,1-29.492,10.061A164.223,164.223,0,0,1,93.759,216.2ZM71.553,55.515h0v105.17H98.385a41.688,41.688,0,0,0,17.464-3.546A37.658,37.658,0,0,0,129.381,146.5a48.324,48.324,0,0,0,8.674-16.574,73.494,73.494,0,0,0,2.892-21.361A70.422,70.422,0,0,0,137.824,86.9a48.648,48.648,0,0,0-9.368-16.886,40.441,40.441,0,0,0-14.612-10.872,47.192,47.192,0,0,0-18.852-3.624H71.553Z" transform="translate(52.374 50.975)"/>
    <g id="Group_33" data-name="Group 33" transform="translate(52 50.403)">
      <path id="Clip_32-2" data-name="Clip 32" class="cls-1" d="M93.758,216.2H0V0H96.534a159.4,159.4,0,0,1,33.23,3.317,121,121,0,0,1,28.762,9.944,101.912,101.912,0,0,1,23.515,16.077,95.652,95.652,0,0,1,17.5,21.7,101.015,101.015,0,0,1,10.87,26.485,123.434,123.434,0,0,1,3.624,30.417,122.114,122.114,0,0,1-3.7,30.612A98.449,98.449,0,0,1,199.236,165a95.99,95.99,0,0,1-17.926,21.629,106.287,106.287,0,0,1-24.172,16.152,126.026,126.026,0,0,1-29.493,10.063A164.212,164.212,0,0,1,93.758,216.2ZM71.553,55.515v105.17H98.385a41.687,41.687,0,0,0,17.464-3.546A37.652,37.652,0,0,0,129.38,146.5a48.315,48.315,0,0,0,8.674-16.574,73.5,73.5,0,0,0,2.892-21.361A70.426,70.426,0,0,0,137.824,86.9a48.64,48.64,0,0,0-9.368-16.886,40.442,40.442,0,0,0-14.612-10.872,47.192,47.192,0,0,0-18.852-3.624Z" transform="translate(0.375 0.572)"/>
      <g id="Group_33-2" data-name="Group 33" class="cls-16">
        <path id="Fill_31" data-name="Fill 31" class="cls-17" d="M10.806,39.821s9.941,52.732,70.021,45.384S158.2,55.652,201.42,62.864,240.5,0,240.5,0s2.843,42.7,30.505,52.932,53.165,14.984,69.157,30.112,46.682,1.729,73.479-10.806,38.538,4.323,76.54-48.842,54.839,51.436,78.19,44.52,21.188,1.729,58.36,11.671,17.289,56.19,17.289,56.19L0,141.4Z" transform="translate(-12.658 118.187)"/>
      </g>
    </g>
    <path id="Fill_34" data-name="Fill 34" class="cls-15" d="M0,58.1H63.174V222.539h73.651V58.1h63.492V0H0Z" transform="translate(507.558 50.974)"/>
    <g id="Group_38" data-name="Group 38" transform="translate(507 50.403)">
      <path id="Clip_37-2" data-name="Clip 37" class="cls-1" d="M0,0V58.1H63.174V222.538h73.651V58.1h63.492V0Z" transform="translate(0.558 0.572)"/>
      <g id="Group_38-2" data-name="Group 38" class="cls-18">
        <path id="Fill_36" data-name="Fill 36" class="cls-17" d="M10.806,39.821s9.941,52.732,70.021,45.384S158.2,55.652,201.42,62.864,240.5,0,240.5,0s2.843,42.7,30.505,52.932,53.165,14.984,69.157,30.112,46.682,1.729,73.479-10.806,38.538,4.323,76.54-48.842,54.839,51.436,78.19,44.52,21.188,1.729,58.36,11.671,17.289,56.19,17.289,56.19L0,141.4Z" transform="translate(-467.658 118.187)"/>
      </g>
    </g>
    <g id="Group_43" data-name="Group 43" transform="translate(253 24.403)">
      <path id="Fill_39" data-name="Fill 39" d="M140.919,249.528a175.829,175.829,0,0,1-38.252-4.049,151.96,151.96,0,0,1-17.614-5.06,145.354,145.354,0,0,1-16.607-7.082,139.869,139.869,0,0,1-15.225-8.872,126.3,126.3,0,0,1-13.463-10.429,119.741,119.741,0,0,1-21.64-25.526,116.792,116.792,0,0,1-7.927-14.764,114.59,114.59,0,0,1-5.662-15.659,119.776,119.776,0,0,1-3.4-16.554,134.841,134.841,0,0,1,0-34.876,118.449,118.449,0,0,1,3.4-16.49,112.564,112.564,0,0,1,5.662-15.553A114.144,114.144,0,0,1,18.118,60a117.923,117.923,0,0,1,21.64-25.182A125.02,125.02,0,0,1,53.221,24.555a138.977,138.977,0,0,1,15.225-8.7A146.94,146.94,0,0,1,85.053,8.916a154.421,154.421,0,0,1,17.614-4.953A179.491,179.491,0,0,1,140.919,0a177.615,177.615,0,0,1,38.249,4.006,153.221,153.221,0,0,1,17.615,5.007,146.22,146.22,0,0,1,16.61,7.009A140.732,140.732,0,0,1,228.615,24.8a126.454,126.454,0,0,1,13.463,10.312,118.817,118.817,0,0,1,21.643,25.224,114.843,114.843,0,0,1,7.927,14.6,112.419,112.419,0,0,1,5.662,15.489,117.376,117.376,0,0,1,3.4,16.383,130.048,130.048,0,0,1,1.132,17.277,132.66,132.66,0,0,1-1.132,17.449,119.77,119.77,0,0,1-3.4,16.554,114.585,114.585,0,0,1-5.662,15.659,116.791,116.791,0,0,1-7.927,14.764,119.751,119.751,0,0,1-21.643,25.526,126.366,126.366,0,0,1-13.463,10.429,139.922,139.922,0,0,1-15.223,8.872,145.455,145.455,0,0,1-16.61,7.082,152.021,152.021,0,0,1-17.615,5.06A175.81,175.81,0,0,1,140.919,249.528ZM111.84,74.57A45.885,45.885,0,0,0,94.95,77.746a43.558,43.558,0,0,0-13.793,8.661,40.25,40.25,0,0,0-9.3,12.845,37.789,37.789,0,0,0-3.41,15.73c0,10.056,3.232,20.062,9.607,29.739,5.331,8.093,12.75,15.836,22.05,23.012a135.482,135.482,0,0,0,24.34,14.953c6.921,3.281,13.234,5.411,16.476,5.559,3.242-.148,9.555-2.278,16.476-5.559a135.483,135.483,0,0,0,24.34-14.953c9.3-7.177,16.719-14.919,22.05-23.012,6.374-9.677,9.606-19.682,9.606-29.739a37.789,37.789,0,0,0-3.41-15.73,40.249,40.249,0,0,0-9.3-12.845,43.558,43.558,0,0,0-13.793-8.661A45.885,45.885,0,0,0,170,74.57,40.973,40.973,0,0,0,140.92,86.184,40.977,40.977,0,0,0,111.84,74.57Z" transform="translate(0.112 4.827)"/>
      <path id="Fill_41" data-name="Fill 41" class="cls-19" d="M133.512,253.849a165.359,165.359,0,0,1-18.6-1.03,147.141,147.141,0,0,1-17.643-3.089,136.469,136.469,0,0,1-16.689-5.148,132.851,132.851,0,0,1-15.734-7.2,130.668,130.668,0,0,1-14.424-9.026,121.2,121.2,0,0,1-12.755-10.61,118.809,118.809,0,0,1-11.086-12.193,123.377,123.377,0,0,1-9.417-13.774A121.108,121.108,0,0,1,4.291,160.823a129.764,129.764,0,0,1-3.218-16.841,147.22,147.22,0,0,1,0-35.48A128.309,128.309,0,0,1,4.291,91.727,119.779,119.779,0,0,1,26.582,47.435,116.973,116.973,0,0,1,37.668,35.417,119.753,119.753,0,0,1,50.423,24.98a129.641,129.641,0,0,1,14.424-8.854A134.1,134.1,0,0,1,80.582,9.071,138.562,138.562,0,0,1,97.271,4.031,158.832,158.832,0,0,1,133.512,0,157.186,157.186,0,0,1,169.75,4.076,137.548,137.548,0,0,1,186.44,9.169a133.532,133.532,0,0,1,15.736,7.13A131.4,131.4,0,0,1,216.6,25.231a121.194,121.194,0,0,1,12.756,10.49,118.078,118.078,0,0,1,11.087,12.05,121.866,121.866,0,0,1,9.418,13.611,118.885,118.885,0,0,1,12.875,30.606,127.144,127.144,0,0,1,3.219,16.667,141.9,141.9,0,0,1,1.073,17.577,144.743,144.743,0,0,1-1.073,17.751,129.759,129.759,0,0,1-3.219,16.841,122.431,122.431,0,0,1-22.293,44.725,118.825,118.825,0,0,1-11.087,12.193A121.247,121.247,0,0,1,216.6,228.35a130.735,130.735,0,0,1-14.423,9.026,132.907,132.907,0,0,1-15.736,7.2,136.514,136.514,0,0,1-16.689,5.148,147.147,147.147,0,0,1-17.643,3.089A165.321,165.321,0,0,1,133.512,253.849ZM105.962,75.861a41.079,41.079,0,0,0-41.114,41.113c0,10.23,3.062,20.409,9.1,30.253a96.241,96.241,0,0,0,20.891,23.411A127.031,127.031,0,0,0,117.9,185.849c6.557,3.338,12.538,5.5,15.61,5.656,3.072-.151,9.053-2.318,15.609-5.656a127.033,127.033,0,0,0,23.061-15.211,96.243,96.243,0,0,0,20.891-23.411c6.039-9.844,9.1-20.023,9.1-30.253a41.078,41.078,0,0,0-41.112-41.113,37.447,37.447,0,0,0-27.551,11.816A37.447,37.447,0,0,0,105.962,75.861Z" transform="translate(7.519 0.506)"/>
    </g>
    <g id="Group_46" data-name="Group 46" transform="translate(260 24.403)">
      <path id="Clip_45-2" data-name="Clip 45" class="cls-1" d="M133.513,253.848a165.365,165.365,0,0,1-18.6-1.03,147.143,147.143,0,0,1-17.643-3.089,136.481,136.481,0,0,1-16.689-5.147,132.836,132.836,0,0,1-15.734-7.2,130.707,130.707,0,0,1-14.424-9.027,121.22,121.22,0,0,1-12.755-10.61,118.821,118.821,0,0,1-11.086-12.192,123.365,123.365,0,0,1-9.417-13.774A121.129,121.129,0,0,1,4.292,160.823a129.765,129.765,0,0,1-3.219-16.841,147.2,147.2,0,0,1,0-35.481A128.313,128.313,0,0,1,4.292,91.726,119.8,119.8,0,0,1,26.583,47.435,116.97,116.97,0,0,1,37.669,35.416,119.743,119.743,0,0,1,50.424,24.98a129.638,129.638,0,0,1,14.424-8.854A134.073,134.073,0,0,1,80.583,9.07,138.552,138.552,0,0,1,97.272,4.031,158.845,158.845,0,0,1,133.513,0a157.183,157.183,0,0,1,36.238,4.076A137.536,137.536,0,0,1,186.44,9.169a133.521,133.521,0,0,1,15.736,7.13A131.391,131.391,0,0,1,216.6,25.23a121.18,121.18,0,0,1,12.756,10.49,118.052,118.052,0,0,1,11.087,12.05,121.832,121.832,0,0,1,9.418,13.611,118.877,118.877,0,0,1,12.875,30.606,127.116,127.116,0,0,1,3.219,16.667,141.889,141.889,0,0,1,1.073,17.577,144.73,144.73,0,0,1-1.073,17.751,129.756,129.756,0,0,1-3.219,16.841,122.452,122.452,0,0,1-22.293,44.725,118.817,118.817,0,0,1-11.087,12.192A121.264,121.264,0,0,1,216.6,228.35a130.767,130.767,0,0,1-14.423,9.027,132.871,132.871,0,0,1-15.736,7.2,136.509,136.509,0,0,1-16.689,5.147,147.148,147.148,0,0,1-17.642,3.089A165.322,165.322,0,0,1,133.513,253.848ZM105.963,75.861A41.078,41.078,0,0,0,64.85,116.974c0,10.23,3.062,20.409,9.1,30.253a96.237,96.237,0,0,0,20.891,23.41A127.031,127.031,0,0,0,117.9,185.848c6.557,3.338,12.538,5.5,15.61,5.655,3.072-.151,9.053-2.318,15.609-5.655a127.028,127.028,0,0,0,23.06-15.211,96.237,96.237,0,0,0,20.891-23.41c6.039-9.844,9.1-20.023,9.1-30.253a41.077,41.077,0,0,0-41.112-41.113,37.443,37.443,0,0,0-27.55,11.816A37.446,37.446,0,0,0,105.963,75.861Z" transform="translate(0.518 0.506)"/>
      <g id="Group_46-2" data-name="Group 46" class="cls-20">
        <path id="Fill_44" data-name="Fill 44" class="cls-21" d="M11.8,43.5s10.859,57.6,76.49,49.577,84.517-32.284,131.734-24.405S262.722,0,262.722,0s3.105,46.646,33.324,57.822,58.076,16.368,75.546,32.894,50.993,1.889,80.268-11.8,42.1,4.722,83.61-53.354,59.905,56.187,85.413,48.632,23.147,1.889,63.752,12.749,18.887,61.381,18.887,61.381L0,154.458Z" transform="translate(-260 134.189)"/>
      </g>
    </g>
  </g>
</svg>
