<svg xmlns="http://www.w3.org/2000/svg" viewBox="0 0 96.9 114.7">
  <defs>
    <style>
      .cls-1 {
        fill: #fd0f47;
        opacity: 0.531;
      }

      .cls-2 {
        fill: #79dd50;
      }

      .cls-3 {
        fill: #71ce46;
      }

      .cls-4 {
        fill: #00c3ff;
      }

      .cls-5 {
        fill: #06b0f2;
      }

      .cls-6 {
        fill: #f0a479;
      }

      .cls-7 {
        fill: #ea976e;
      }

      .cls-8 {
        fill: #ffc850;
      }

      .cls-9 {
        fill: #f9b938;
      }
    </style>
  </defs>
  <g id="Group_2" data-name="Group 2" transform="translate(-1185.55 -1249.9)">
    <path id="Shape" class="cls-1" d="M27.769,6.751a8.88,8.88,0,0,0-3.406-5.53,6.61,6.61,0,0,0-5.538-1C16.816.707,15.943,2.006,14,4.083,12.057,2.007,11.184.707,9.176.216a6.61,6.61,0,0,0-5.538,1A8.874,8.874,0,0,0,.231,6.751,11.537,11.537,0,0,0,1.16,14.07C3.351,18.613,13.919,25,14,25s10.65-6.387,12.84-10.93A11.537,11.537,0,0,0,27.769,6.751Z" transform="translate(1217.3 1252.9)"/>
    <path id="Shape-2" data-name="Shape" d="M16.5,30c-.755,0-1.04-.164-3.04-1.449-.961-.618-2.441-1.6-4.034-2.771-4.273-3.142-6.89-5.783-8-8.076A14.053,14.053,0,0,1,.287,8.736,11.366,11.366,0,0,1,4.724,1.661,8.851,8.851,0,0,1,9.9,0,9.885,9.885,0,0,1,12.23.286,8.394,8.394,0,0,1,16.5,2.933,8.388,8.388,0,0,1,20.77.286,9.89,9.89,0,0,1,23.1,0a8.854,8.854,0,0,1,5.178,1.661,11.374,11.374,0,0,1,4.436,7.075A14.061,14.061,0,0,1,31.576,17.7c-1.112,2.292-3.729,4.934-8,8.076-1.587,1.169-3.07,2.152-4.034,2.771C17.54,29.836,17.255,30,16.5,30ZM9.919,5.09A4.131,4.131,0,0,0,7.5,5.864,6.318,6.318,0,0,0,5.107,9.81a8.814,8.814,0,0,0,.728,5.618c1.311,2.707,7.32,6.989,10.664,9.093,3.343-2.1,9.353-6.385,10.665-9.093a8.819,8.819,0,0,0,.727-5.618A6.313,6.313,0,0,0,25.5,5.864a4.139,4.139,0,0,0-2.419-.774,5.023,5.023,0,0,0-1.178.147c-.918.223-1.385.7-2.725,2.168l-.067.073c-.264.289-.537.587-.84.908a2.414,2.414,0,0,1-3.54,0c-.329-.349-.628-.676-.906-.981C12.484,5.935,12.017,5.46,11.1,5.236A5.012,5.012,0,0,0,9.919,5.09Z" transform="translate(1216.3 1249.9)"/>
    <g id="people_2_" data-name="people (2)" transform="translate(1185.55 1286.85)">
      <path id="Shape-3" data-name="Shape" class="cls-2" d="M19.165,0h-6.98C5.455,0,0,4.623,0,10.325v1.164a12.593,12.593,0,0,1,4.868,9.722V33.25H28.936a2.438,2.438,0,0,0,2.414-2.461V10.324C31.35,4.623,25.894,0,19.165,0Z" transform="translate(63.65 26.45)"/>
      <path id="Shape-4" data-name="Shape" class="cls-3" d="M9.5,26.6V14.641A16.938,16.938,0,0,0,3.206,1.6,20.169,20.169,0,0,0,1.019,0,8.781,8.781,0,0,0,0,4.087V5.23a12.351,12.351,0,0,1,4.8,9.547V26.6Z" transform="translate(63.65 31.2)"/>
      <path id="Shape-5" data-name="Shape" class="cls-4" d="M26.482,21.211a12.593,12.593,0,0,1,4.868-9.722V10.325C31.35,4.622,25.895,0,19.165,0h-6.98C5.456,0,0,4.622,0,10.325V30.789A2.438,2.438,0,0,0,2.414,33.25H26.482Z" transform="translate(1.9 26.45)"/>
      <path id="Shape-6" data-name="Shape" class="cls-5" d="M4.742,30.79V10.325C4.742,4.622,10.274,0,17.1,0H12.358C5.533,0,0,4.623,0,10.325V30.79a2.455,2.455,0,0,0,2.449,2.46H7.19A2.454,2.454,0,0,1,4.742,30.79Z" transform="translate(1.9 26.45)"/>
      <g id="Group" transform="translate(8.55 1.75)">
        <ellipse id="Oval" class="cls-6" cx="8.527" cy="8.29" rx="8.527" ry="8.29" transform="translate(0.028 0.027)"/>
        <path id="Shape-7" data-name="Shape" class="cls-6" d="M6.387,9.112a1,1,0,0,0,1.516,0L14.29.448A14.908,14.908,0,0,0,10.644,0h-7A14.9,14.9,0,0,0,0,.448Z" transform="translate(1.411 23.677)"/>
      </g>
      <path id="Shape-8" data-name="Shape" class="cls-7" d="M4.574,0H3.6A14.458,14.458,0,0,0,0,.45l6.3,8.7a.976.976,0,0,0,1.5,0L9.5,6.8Z" transform="translate(9.5 26.45)"/>
      <g id="Group-2" data-name="Group" transform="translate(37.05 1.75)">
        <ellipse id="Oval-2" data-name="Oval" class="cls-6" cx="10.917" cy="10.857" rx="10.917" ry="10.857" transform="translate(0.224 0.03)"/>
        <ellipse id="Oval-3" data-name="Oval" class="cls-6" cx="8.331" cy="8.285" rx="8.331" ry="8.285" transform="translate(33.514 0.027)"/>
      </g>
      <g id="Group-3" data-name="Group" transform="translate(8.55 1.75)">
        <path id="Shape-9" data-name="Shape" class="cls-7" d="M4.646,8.285A8.313,8.313,0,0,1,10.776.32,8.614,8.614,0,0,0,8.453,0,8.37,8.37,0,0,0,0,8.285a8.37,8.37,0,0,0,8.453,8.285,8.608,8.608,0,0,0,2.323-.32A8.312,8.312,0,0,1,4.646,8.285Z" transform="translate(0.03 0.028)"/>
        <path id="Shape-10" data-name="Shape" class="cls-7" d="M4.646,10.857A10.914,10.914,0,0,1,13.4.241,11.345,11.345,0,0,0,11.077,0,10.969,10.969,0,0,0,0,10.857,10.969,10.969,0,0,0,11.077,21.715a11.332,11.332,0,0,0,2.323-.241A10.914,10.914,0,0,1,4.646,10.857Z" transform="translate(28.559 0.029)"/>
        <path id="Shape-11" data-name="Shape" class="cls-7" d="M4.646,8.285A8.313,8.313,0,0,1,10.776.32,8.613,8.613,0,0,0,8.452,0,8.37,8.37,0,0,0,0,8.285a8.37,8.37,0,0,0,8.452,8.285,8.607,8.607,0,0,0,2.323-.32A8.312,8.312,0,0,1,4.646,8.285Z" transform="translate(62.338 0.028)"/>
      </g>
      <path id="Shape-12" data-name="Shape" class="cls-6" d="M6.369,9.151a.993.993,0,0,0,1.512,0L14.25.45A14.766,14.766,0,0,0,10.614,0H3.636A14.755,14.755,0,0,0,0,.45Z" transform="translate(72.2 26.45)"/>
      <path id="Shape-13" data-name="Shape" class="cls-7" d="M4.574,0H3.6A14.458,14.458,0,0,0,0,.45l6.3,8.7a.976.976,0,0,0,1.5,0L9.5,6.8Z" transform="translate(72.2 26.45)"/>
      <path id="Shape-14" data-name="Shape" class="cls-8" d="M24.973,0h-9.1C7.108,0,0,5.943,0,13.274V39.587A3.154,3.154,0,0,0,3.146,42.75H37.7a3.154,3.154,0,0,0,3.146-3.163V13.274C40.85,5.943,33.741,0,24.973,0Z" transform="translate(27.55 33.1)"/>
      <path id="Shape-15" data-name="Shape" class="cls-9" d="M4.758,39.587V13.274C4.758,5.943,11.985,0,20.9,0H16.142C7.227,0,0,5.943,0,13.274V39.587A3.181,3.181,0,0,0,3.2,42.75H7.956A3.181,3.181,0,0,1,4.758,39.587Z" transform="translate(27.55 33.1)"/>
      <path id="Shape-16" data-name="Shape" class="cls-6" d="M8.492,11.9a1.346,1.346,0,0,0,2.015,0L19,.584A20.152,20.152,0,0,0,14.152,0h-9.3A20.151,20.151,0,0,0,0,.584Z" transform="translate(38.95 33.1)"/>
      <path id="Shape-17" data-name="Shape" class="cls-7" d="M4.48,0A17.946,17.946,0,0,0,0,.583L8,11.9a1.221,1.221,0,0,0,1.9,0l1.5-2.115Z" transform="translate(38.95 33.1)"/>
      <path id="Shape-18" data-name="Shape" d="M10.45,19.95A10.233,10.233,0,0,1,0,9.975,10.232,10.232,0,0,1,10.45,0,10.232,10.232,0,0,1,20.9,9.975,10.233,10.233,0,0,1,10.45,19.95Zm0-16.54A6.735,6.735,0,0,0,3.571,9.976a6.735,6.735,0,0,0,6.879,6.565,6.735,6.735,0,0,0,6.878-6.565A6.735,6.735,0,0,0,10.45,3.41Z" transform="translate(6.65 0.8)"/>
      <path id="Shape-19" data-name="Shape" d="M12.825,25.65A12.825,12.825,0,1,1,25.65,12.825,12.84,12.84,0,0,1,12.825,25.65Zm0-22.164a9.339,9.339,0,1,0,9.339,9.339A9.35,9.35,0,0,0,12.825,3.486Z" transform="translate(35.15 0.8)"/>
      <path id="Shape-20" data-name="Shape" d="M10.45,19.95A10.233,10.233,0,0,1,0,9.975,10.232,10.232,0,0,1,10.45,0,10.232,10.232,0,0,1,20.9,9.975,10.233,10.233,0,0,1,10.45,19.95Zm0-16.54A6.735,6.735,0,0,0,3.572,9.976a6.735,6.735,0,0,0,6.878,6.565,6.735,6.735,0,0,0,6.879-6.565A6.735,6.735,0,0,0,10.45,3.41Z" transform="translate(69.35 0.8)"/>
      <path id="Shape-21" data-name="Shape" d="M65.712,53.2h-13.2a1.734,1.734,0,1,1,0-3.468h13.2a1.4,1.4,0,0,0,1.4-1.394V22.314a9.853,9.853,0,0,0-2.523-6.487A14.046,14.046,0,0,0,58.42,11.8L50.849,22.311a3.02,3.02,0,0,1-4.8,0L38.48,11.8a14.288,14.288,0,0,0-6.142,3.992,9.853,9.853,0,0,0-2.551,6.527V48.337a1.4,1.4,0,0,0,1.4,1.4h13.2a1.734,1.734,0,1,1,0,3.468h-13.2A4.879,4.879,0,0,1,26.3,48.337V35.729H4.139A4.135,4.135,0,0,1,0,31.608V11.751C0,5.289,6.194.018,13.807,0h7.008a15.318,15.318,0,0,1,9,2.858A11.493,11.493,0,0,1,34.428,9.8,19.939,19.939,0,0,1,44.3,7.451c.573-.008,1.236-.012,2.149-.012.624,0,1.344,0,2.407,0,1.112,0,2.473.007,4.134.007A19.957,19.957,0,0,1,62.472,9.8,11.492,11.492,0,0,1,67.1,2.847,15.338,15.338,0,0,1,76.084,0h7.008C90.705.018,96.9,5.289,96.9,11.751V31.608a4.135,4.135,0,0,1-4.14,4.121H70.6V48.338A4.879,4.879,0,0,1,65.712,53.2ZM71.825,4.216a10,10,0,0,0-4.32,2.941,7.55,7.55,0,0,0-1.745,4.922A13.641,13.641,0,0,1,70.6,22.315v9.948H92.759a.656.656,0,0,0,.657-.653V11.752a7.107,7.107,0,0,0-1.692-4.531A10.115,10.115,0,0,0,87.35,4.216l-5.6,7.773a2.719,2.719,0,0,1-4.333,0Zm-62.277,0A10.12,10.12,0,0,0,5.175,7.221a7.1,7.1,0,0,0-1.693,4.531V31.609a.656.656,0,0,0,.657.653H26.3V22.315a13.641,13.641,0,0,1,4.836-10.237,7.546,7.546,0,0,0-1.753-4.932,10.007,10.007,0,0,0-4.313-2.93l-5.6,7.773a2.717,2.717,0,0,1-4.332,0Zm34.759,6.7c-.9.014-1.552.042-2.111.088l6.254,8.686L54.7,11.006,54.61,11l-.018,0c-.165-.015-.352-.029-.553-.041l-.1-.006-.048,0-.1-.005c-.271-.013-.54-.02-.8-.02ZM76.122,3.468c-.184,0-.366,0-.542.011l4.008,5.567L83.6,3.479c-.2-.007-.364-.011-.542-.011Zm-62.278,0c-.183,0-.365,0-.541.011l4.008,5.567,4.008-5.567c-.2-.007-.367-.011-.541-.011Z" transform="translate(0 24.55)"/>
    </g>
  </g>
</svg>
