<svg xmlns="http://www.w3.org/2000/svg" viewBox="0 0 180 180">
  <defs>
    <style>
      .cls-1 {
        opacity: 0.966;
      }
    </style>
  </defs>
  <g id="spider-web" class="cls-1">
    <path id="Shape" d="M93,180H87V168c0-1.551-5.223-5.721-15.63-8.511a46.738,46.738,0,0,0-11.884-1.778,18.2,18.2,0,0,0-4.07.4,2.985,2.985,0,0,0-1.821.934l-6,10.391-5.2-3,6-10.391c.774-1.341-1.66-7.554-9.266-15.16-6.913-6.912-12.476-9.421-14.529-9.421a1.2,1.2,0,0,0-.666.138l-10.383,6-3-5.2,10.382-6c1.354-.773,2.365-7.383-.441-17.8C17.7,98.213,13.542,93,12,93H0V87H12c1.55,0,5.716-5.217,8.5-15.612s1.785-17.019.441-17.8l-10.383-6,3-5.2,10.383,6a1.36,1.36,0,0,0,.686.145c2.046,0,7.6-2.509,14.506-9.42,7.614-7.618,10.051-13.838,9.276-15.18l-6-10.383,5.2-3,6,10.383c.353.621,2.111,1.346,5.907,1.346A45.99,45.99,0,0,0,71.4,20.5C81.787,17.7,87,13.541,87,12V0h6V12c0,1.555,5.217,5.728,15.612,8.511A46.02,46.02,0,0,0,120.5,22.288a17.476,17.476,0,0,0,4.081-.4,2.989,2.989,0,0,0,1.825-.937l6-10.383,5.2,3-6,10.383c-.777,1.343,1.659,7.564,9.275,15.18,6.91,6.91,12.463,9.418,14.51,9.418a1.331,1.331,0,0,0,.67-.141l10.383-6,3,5.2-10.383,6c-1.352.78-2.362,7.394.441,17.795S166.459,87,168,87h12v6H168c-1.541,0-5.7,5.213-8.5,15.6-2.784,10.405-1.791,17.025-.453,17.808l10.383,6-3,5.2-10.382-6a1.186,1.186,0,0,0-.664-.138c-2.053,0-7.613,2.507-14.516,9.413-7.614,7.618-10.051,13.838-9.276,15.18l6,10.383-5.2,3-6-10.383a3,3,0,0,0-1.831-.94,17.536,17.536,0,0,0-4.093-.4A46.733,46.733,0,0,0,108.6,159.5C98.213,162.3,93,166.459,93,168v12Zm19.414-39.713a33.69,33.69,0,0,0-8.593,1.28C96.883,143.423,93.3,146.112,93,147.074V159.6a52.89,52.89,0,0,1,14.067-5.9l-.012.012a52.988,52.988,0,0,1,14.181-1.934c.355,0,.681,0,.968.009l-6.3-10.912C115.595,140.581,114.395,140.287,112.414,140.287ZM72.935,153.7h0A53.079,53.079,0,0,1,87,159.6V147c-.25-.814-3.714-3.534-10.8-5.436a33.281,33.281,0,0,0-8.507-1.276c-2.154,0-3.293.345-3.614.641l-6.263,10.844.413-.024.054,0h.005l.043,0h.014c.359-.022.73-.045,1.1-.045a56.569,56.569,0,0,1,13.5,2ZM137.7,121.09c-1.037,0-4.986,1.678-9.964,6.663-5.056,5.061-6.818,9.192-6.6,10.182l6.277,10.835a52.971,52.971,0,0,1,9.223-12.132l.011-.011a53.053,53.053,0,0,1,12.119-9.223l-10.91-6.3A.7.7,0,0,0,137.7,121.09ZM43.38,136.646a52.986,52.986,0,0,1,9.234,12.12l6.3-10.913c.19-.828-1.455-4.914-6.656-10.113a34.049,34.049,0,0,0-6.33-5.111,8.836,8.836,0,0,0-3.663-1.507.941.941,0,0,0-.189.018L31.231,127.4a53.09,53.09,0,0,1,12.161,9.246Zm60.8-13.67A19.907,19.907,0,0,0,93,126.4v13.032a43.675,43.675,0,0,1,19.117-5.121L105.6,123.026C105.133,122.993,104.655,122.976,104.181,122.976Zm-28.364-.006c-.444,0-.921.017-1.418.05L67.887,134.3A43.638,43.638,0,0,1,87,139.428V126.4A19.874,19.874,0,0,0,75.818,122.97Zm44.233-12.155a19.719,19.719,0,0,0-9.237,9.237l6.5,11.262a43.553,43.553,0,0,1,14-14l-11.262-6.5h0Zm-60.1,0-11.25,6.5a43.6,43.6,0,0,1,14,13.992l6.49-11.262a19.72,19.72,0,0,0-9.24-9.231h0ZM147,93h0c-.812.25-3.526,3.714-5.421,10.806a33.67,33.67,0,0,0-1.271,8.384c-.013,2.228.335,3.4.637,3.736l10.837,6.278A56.584,56.584,0,0,1,159.6,93H147ZM20.4,93a53.087,53.087,0,0,1,5.893,14.053A53,53,0,0,1,28.218,122.2l10.912-6.3c.58-.622,1.2-4.982-.7-12.084C36.577,96.883,33.888,93.3,32.926,93ZM93,101.2v18.246A28.814,28.814,0,0,1,102.123,117L93,101.2Zm-6,0L77.891,116.97a28.83,28.83,0,0,1,4.645.866,30.486,30.486,0,0,1,4.464,1.6V101.2Zm11.2-3,9.126,15.8A29.205,29.205,0,0,1,114,107.321Zm-16.4,0L66,107.319a29.736,29.736,0,0,1,3.624,3.057v.023a31.869,31.869,0,0,1,3.057,3.6ZM126.4,93a19.994,19.994,0,0,0-3.375,12.6l11.29,6.519A43.613,43.613,0,0,1,139.431,93Zm-85.83,0a41.726,41.726,0,0,1,3.655,9.249,41.934,41.934,0,0,1,1.463,9.868L56.974,105.6A19.988,19.988,0,0,0,53.6,93ZM101.2,93l15.8,9.123A28.217,28.217,0,0,1,119.442,93ZM60.558,93a30.709,30.709,0,0,1,1.606,4.443l-.006.012A30.66,30.66,0,0,1,63,102.123L78.8,93ZM28.218,57.8a53,53,0,0,1-1.925,15.15A52.746,52.746,0,0,1,20.4,87H33c.426-.13,1.317-1.076,2.344-2.893a34.149,34.149,0,0,0,3.092-7.934c1.849-6.913,1.312-11.367.63-12.114Zm123.565,0-10.912,6.3c-.58.621-1.2,4.981.7,12.084,1.855,6.938,4.544,10.523,5.507,10.821H159.6a53.217,53.217,0,0,1-5.893-14.055A53.239,53.239,0,0,1,151.782,57.8ZM134.313,67.883h0L123.024,74.4A19.994,19.994,0,0,0,126.4,87h13.032a43.606,43.606,0,0,1-5.117-19.117ZM117,77.877,101.2,87h18.246a30.132,30.132,0,0,1-1.6-4.452A31.964,31.964,0,0,1,117,77.877Zm-54,0h0A28.868,28.868,0,0,1,60.558,87H78.8L63,77.877Zm-17.313-10a42.352,42.352,0,0,1-1.46,9.868A42.622,42.622,0,0,1,40.568,87H53.6a19.988,19.988,0,0,0,3.372-12.6L45.687,67.881h0ZM107.321,66h0L98.2,81.8,114,72.679a30.482,30.482,0,0,1-3.6-3.057A30.154,30.154,0,0,1,107.321,66ZM72.679,66a29.873,29.873,0,0,1-3.06,3.615A30.234,30.234,0,0,1,66,72.679L81.8,81.8,72.679,66ZM93,60.558V78.8L102.123,63A28.222,28.222,0,0,1,93,60.558Zm-6,0h0A28.893,28.893,0,0,1,77.877,63L87,78.8V60.558Zm30.315-11.871-6.5,11.262a19.719,19.719,0,0,0,9.237,9.237l11.262-6.51a41.921,41.921,0,0,1-7.8-6.188A42.009,42.009,0,0,1,117.315,48.687Zm-54.616,0h0A43.635,43.635,0,0,1,48.687,62.7l11.262,6.486a19.719,19.719,0,0,0,9.237-9.237L62.7,48.687ZM52.6,31.217a52.973,52.973,0,0,1-9.235,12.145A52.976,52.976,0,0,1,31.231,52.6l10.91,6.3a.822.822,0,0,0,.158.015,8.863,8.863,0,0,0,3.606-1.521,34.7,34.7,0,0,0,6.354-5.142c5.056-5.061,6.818-9.192,6.6-10.182Zm74.792,0-6.3,10.912c-.192.832,1.448,4.925,6.646,10.113a34.943,34.943,0,0,0,6.31,5.116,9.094,9.094,0,0,0,3.679,1.523.917.917,0,0,0,.211-.022L148.783,52.6a53.009,53.009,0,0,1-12.145-9.235A53.094,53.094,0,0,1,127.389,31.217ZM93,40.568V53.6a19.954,19.954,0,0,0,11.2,3.422c.318,0,.791-.017,1.4-.049l6.516-11.283a43.628,43.628,0,0,1-9.853-1.462A43.824,43.824,0,0,1,93,40.568Zm-6,0A43.538,43.538,0,0,1,67.883,45.69L74.4,56.974c.55.033,1.025.049,1.409.049A19.942,19.942,0,0,0,87,53.6ZM57.8,28.218l6.3,10.912c.318.292,1.524.586,3.5.586a33.707,33.707,0,0,0,8.575-1.279C83.115,36.577,86.7,33.887,87,32.926V20.4a52.958,52.958,0,0,1-14.055,5.893,53.178,53.178,0,0,1-14.2,1.933c-.343,0-.664,0-.952-.008ZM93,20.4V32.926c.3.963,3.883,3.654,10.827,5.511a33.325,33.325,0,0,0,8.486,1.269c2.16,0,3.3-.344,3.628-.639L122.2,28.218c-.306.006-.582.008-.952.008h-.01a53.152,53.152,0,0,1-14.188-1.933A52.672,52.672,0,0,1,93,20.4Z"/>
  </g>
</svg>
