<svg xmlns="http://www.w3.org/2000/svg" viewBox="0 0 100.697 120.65">
  <defs>
    <style>
      .cls-1 {
        fill: #e02e00;
      }

      .cls-2 {
        fill: #ff4719;
      }

      .cls-3 {
        fill: #c20035;
      }

      .cls-4 {
        fill: #ff0f47;
      }

      .cls-5 {
        fill: #e89330;
      }

      .cls-6 {
        fill: #ffbe35;
      }

      .cls-7 {
        fill: #ffdb8a;
      }

      .cls-8 {
        fill: #ffeab5;
      }
    </style>
  </defs>
  <g id="quality" transform="translate(-0.001)">
    <path id="Shape" class="cls-1" d="M24.7,8.43,4.764,57,0,48.271,13.2,0Z" transform="translate(22.8 61.75)"/>
    <path id="Shape-2" data-name="Shape" class="cls-2" d="M22.034,0,0,55.04l16.525-4.954L20.206,57,38,12.55Z" transform="translate(1.9 53.2)"/>
    <path id="Shape-3" data-name="Shape" class="cls-3" d="M0,8.43,19.936,57,24.7,48.271,11.5,0Z" transform="translate(53.2 61.75)"/>
    <path id="Shape-4" data-name="Shape" class="cls-4" d="M15.966,0,0,12.55,17.793,57l3.682-6.915L38,55.04Z" transform="translate(59.85 53.2)"/>
    <path id="Shape-5" data-name="Shape" class="cls-5" d="M12.757,0,0,37.05,12.757,74.1A36.848,36.848,0,0,0,49.4,37.05,36.848,36.848,0,0,0,12.757,0Z" transform="translate(38 1.9)"/>
    <path id="Shape-6" data-name="Shape" class="cls-6" d="M0,37.05C0,57.512,17.013,74.1,38,74.1V0C17.013,0,0,16.588,0,37.05Z" transform="translate(12.35 1.9)"/>
    <path id="Shape-7" data-name="Shape" class="cls-7" d="M0,0V58.9A29.483,29.483,0,0,0,29.45,29.45,29.484,29.484,0,0,0,0,0Z" transform="translate(50.35 10.45)"/>
    <path id="Shape-8" data-name="Shape" class="cls-8" d="M29.167,0a29.451,29.451,0,0,0,0,58.9C42.418,58.9,53.2,45.689,53.2,29.45S42.418,0,29.167,0Z" transform="translate(20.9 10.45)"/>
    <path id="Shape-9" data-name="Shape" class="cls-5" d="M19.95,0l6.366,12.232L39.9,14.515l-9.65,9.843L32.28,38,19.95,31.851,7.62,38,9.65,24.357,0,14.515l13.584-2.283Z" transform="translate(30.4 17.1)"/>
    <path id="Shape-10" data-name="Shape" d="M73.072,120.65c-.04,0-.075,0-.108,0a1.942,1.942,0,0,1-1.68-1.185l-17.5-42.029c-1.164.1-2.321.153-3.438.153A38.976,38.976,0,0,1,21.876,65.262L5.263,105.171,18.5,101.354a1.939,1.939,0,0,1,2.234.921l6.647,12.011L40.839,81.959a1.939,1.939,0,0,1,3.577,0,1.905,1.905,0,0,1,0,1.471l-15,36.028a1.948,1.948,0,0,1-1.681,1.186l-.107,0a1.938,1.938,0,0,1-1.695-1l-7.843-14.172-15.617,4.5A1.929,1.929,0,0,1,.148,107.4L19.076,61.929a38.9,38.9,0,0,1,58.83-50.554,38.728,38.728,0,0,1,8.363,12.332,38.546,38.546,0,0,1-5.987,39.914,39.058,39.058,0,0,1-22.535,13.26l15.571,37.4,6.648-12.011a1.941,1.941,0,0,1,2.234-.921l13.237,3.817L80.924,70.311A1.922,1.922,0,0,1,81.972,67.8,1.937,1.937,0,0,1,84.5,68.836L100.553,107.4a1.932,1.932,0,0,1-2.326,2.587l-15.617-4.5-7.843,14.171A1.935,1.935,0,0,1,73.072,120.65ZM50.35,3.85A34.942,34.942,0,1,0,85.468,38.793,35.07,35.07,0,0,0,50.35,3.85Z"/>
    <path id="Shape-11" data-name="Shape" d="M9.717,41.8a1.938,1.938,0,0,1-1.131-.36,1.861,1.861,0,0,1-.772-1.8L9.748,26.912l-9.2-9.18a1.851,1.851,0,0,1-.456-1.9,1.906,1.906,0,0,1,1.511-1.277l12.946-2.128L20.619,1.014a1.942,1.942,0,0,1,3.412,0L30.1,12.423l12.946,2.128a1.908,1.908,0,0,1,1.511,1.277,1.851,1.851,0,0,1-.456,1.9l-9.2,9.18,1.934,12.725a1.864,1.864,0,0,1-.772,1.8,1.938,1.938,0,0,1-1.131.36,1.97,1.97,0,0,1-.858-.2L22.325,35.868,10.574,41.6A1.964,1.964,0,0,1,9.717,41.8Zm12.607-9.924a1.965,1.965,0,0,1,.857.2l9.3,4.54L30.956,26.539a1.87,1.87,0,0,1,.53-1.6l7.281-7.268-10.25-1.687A1.93,1.93,0,0,1,27.129,15l-4.8-9.033L17.521,15a1.933,1.933,0,0,1-1.388.988L5.882,17.671l7.282,7.269a1.868,1.868,0,0,1,.53,1.6L12.164,36.614l9.3-4.54A1.969,1.969,0,0,1,22.325,31.876Z" transform="translate(28.5 14.25)"/>
    <path id="Shape-12" data-name="Shape" d="M61.007,32.3a1.936,1.936,0,0,0-2.188,1.619C57.01,47.1,45.257,57.035,31.479,57.035,16.271,57.035,3.9,45.087,3.9,30.4S16.271,3.765,31.479,3.765c13.778,0,25.531,9.938,27.339,23.118A1.937,1.937,0,0,0,61.006,28.5a1.9,1.9,0,0,0,1.676-2.113C60.619,11.344,47.2,0,31.479,0,14.121,0,0,13.637,0,30.4S14.121,60.8,31.479,60.8c15.726,0,29.14-11.344,31.2-26.388A1.9,1.9,0,0,0,61.007,32.3Z" transform="translate(19 8.55)"/>
  </g>
</svg>
