<svg id="witch-hat" xmlns="http://www.w3.org/2000/svg" viewBox="0 0 98 98">
  <defs>
    <style>
      .cls-1 {
        fill: #f7931e;
      }

      .cls-2 {
        fill: #ffcc5c;
      }

      .cls-3 {
        fill: #4d4d4d;
      }
    </style>
  </defs>
  <path id="Shape" d="M98,14.5C98,6.492,76.062,0,49,0S0,6.492,0,14.5,21.938,29,49,29,98,22.508,98,14.5Z" transform="translate(0 69)"/>
  <path id="Shape-2" data-name="Shape" d="M64.9,80.656,47.851,33.62a27.315,27.315,0,0,1-1.433-12.785L48.8,1.819A1.621,1.621,0,0,0,47.982.213a1.6,1.6,0,0,0-1.809.146L28.322,14.588a30.8,30.8,0,0,0-9.886,13.889L.1,80.672a1.618,1.618,0,0,0,.1,1.314,1.594,1.594,0,0,0,1.059.795,140.548,140.548,0,0,0,31.272,3.212,140.067,140.067,0,0,0,31.224-3.212A1.62,1.62,0,0,0,64.9,80.656Z" transform="translate(16)"/>
  <path id="Shape-3" data-name="Shape" class="cls-1" d="M19.5,8.787l-3.55,3.432.85,4.841A1.664,1.664,0,0,1,15.151,19a1.875,1.875,0,0,1-.784-.182L10,16.53,5.632,18.818a1.734,1.734,0,0,1-1.766-.133A1.655,1.655,0,0,1,3.2,17.06l.851-4.841L.5,8.787A1.64,1.64,0,0,1,.083,7.1a1.679,1.679,0,0,1,1.35-1.144l4.883-.7L8.5.845a1.754,1.754,0,0,1,3,0l2.184,4.41,4.884.7A1.68,1.68,0,0,1,19.918,7.1,1.643,1.643,0,0,1,19.5,8.787Z" transform="translate(39 49)"/>
  <path id="Shape-4" data-name="Shape" class="cls-2" d="M64.8,10.032a1.567,1.567,0,0,1-1.059.8,142.149,142.149,0,0,1-31.22,3.163A142.637,142.637,0,0,1,1.252,10.831a1.591,1.591,0,0,1-1.059-.782A1.571,1.571,0,0,1,.1,8.754L3.223,0c1.026.224,2.1.447,3.208.655a145.112,145.112,0,0,0,26.09,2.156A145.217,145.217,0,0,0,58.465.671c1.124-.192,2.2-.415,3.225-.655L62.8,3.051l2.1,5.687a1.5,1.5,0,0,1-.1,1.293Z" transform="translate(16 72)"/>
  <path id="Shape-5" data-name="Shape" class="cls-3" d="M2.48,11.482,4.485,14,13,7.535a26.454,26.454,0,0,1-.7-5.991L.431,0,0,3.16,11.473,4.654Z" transform="translate(50 23)"/>
</svg>
